<svg width="20" height="20" viewBox="0 0 20 20" fill="none" xmlns="http://www.w3.org/2000/svg">
<path d="M17.0833 8.4915H14.675C12.7 8.4915 11.0916 6.88317 11.0916 4.90817V2.49984C11.0916 2.0415 10.7166 1.6665 10.2583 1.6665H6.72498C4.15831 1.6665 2.08331 3.33317 2.08331 6.30817V13.6915C2.08331 16.6665 4.15831 18.3332 6.72498 18.3332H13.275C15.8416 18.3332 17.9166 16.6665 17.9166 13.6915V9.32484C17.9166 8.8665 17.5416 8.4915 17.0833 8.4915ZM9.60831 11.2748C9.48331 11.3998 9.32498 11.4582 9.16665 11.4582C9.00831 11.4582 8.84998 11.3998 8.72498 11.2748L8.12498 10.6748V14.1665C8.12498 14.5082 7.84165 14.7915 7.49998 14.7915C7.15831 14.7915 6.87498 14.5082 6.87498 14.1665V10.6748L6.27498 11.2748C6.03331 11.5165 5.63331 11.5165 5.39165 11.2748C5.14998 11.0332 5.14998 10.6332 5.39165 10.3915L7.05831 8.72484C7.11665 8.67484 7.17498 8.63317 7.24165 8.59984C7.25831 8.5915 7.28331 8.58317 7.29998 8.57484C7.34998 8.55817 7.39998 8.54984 7.45831 8.5415C7.48331 8.5415 7.49998 8.5415 7.52498 8.5415C7.59165 8.5415 7.65831 8.55817 7.72498 8.58317C7.73331 8.58317 7.73331 8.58317 7.74165 8.58317C7.80831 8.60817 7.87498 8.65817 7.92498 8.70817C7.93331 8.7165 7.94165 8.7165 7.94165 8.72484L9.60831 10.3915C9.84998 10.6332 9.84998 11.0332 9.60831 11.2748Z" fill="#909094"/>
<path d="M14.525 7.34158C15.3167 7.34991 16.4167 7.34991 17.3583 7.34991C17.8333 7.34991 18.0833 6.79158 17.75 6.45825C16.55 5.24991 14.4 3.07491 13.1667 1.84158C12.825 1.49991 12.2333 1.73325 12.2333 2.20825V5.11658C12.2333 6.33325 13.2667 7.34158 14.525 7.34158Z" fill="#909094"/>
</svg>
