<svg width="22" height="22" viewBox="0 0 22 22" fill="none" xmlns="http://www.w3.org/2000/svg">
<path d="M20.1667 7.81004V3.64837C20.1667 2.35587 19.58 1.83337 18.1225 1.83337H14.4192C12.9617 1.83337 12.375 2.35587 12.375 3.64837V7.80087C12.375 9.10254 12.9617 9.61587 14.4192 9.61587H18.1225C19.58 9.62504 20.1667 9.10254 20.1667 7.81004Z" fill="#1C1C20"/>
<path d="M20.1667 18.1225V14.4192C20.1667 12.9617 19.58 12.375 18.1225 12.375H14.4192C12.9617 12.375 12.375 12.9617 12.375 14.4192V18.1225C12.375 19.58 12.9617 20.1667 14.4192 20.1667H18.1225C19.58 20.1667 20.1667 19.58 20.1667 18.1225Z" fill="#1C1C20"/>
<path d="M9.62499 7.81004V3.64837C9.62499 2.35587 9.03833 1.83337 7.58083 1.83337H3.87749C2.41999 1.83337 1.83333 2.35587 1.83333 3.64837V7.80087C1.83333 9.10254 2.41999 9.61587 3.87749 9.61587H7.58083C9.03833 9.62504 9.62499 9.10254 9.62499 7.81004Z" fill="#1C1C20"/>
<path d="M9.62499 18.1225V14.4192C9.62499 12.9617 9.03833 12.375 7.58083 12.375H3.87749C2.41999 12.375 1.83333 12.9617 1.83333 14.4192V18.1225C1.83333 19.58 2.41999 20.1667 3.87749 20.1667H7.58083C9.03833 20.1667 9.62499 19.58 9.62499 18.1225Z" fill="#292D32"/>
</svg>
