<svg width="20" height="20" viewBox="0 0 20 20" fill="none" xmlns="http://www.w3.org/2000/svg">
<path d="M14.1666 2.02502H5.83329C3.33329 2.02502 1.66663 3.69169 1.66663 6.19169V11.1917C1.66663 13.6917 3.33329 15.3584 5.83329 15.3584V17.1334C5.83329 17.8 6.57496 18.2 7.12496 17.825L10.8333 15.3584H14.1666C16.6666 15.3584 18.3333 13.6917 18.3333 11.1917V6.19169C18.3333 3.69169 16.6666 2.02502 14.1666 2.02502ZM9.99996 12.1667C9.64996 12.1667 9.37496 11.8834 9.37496 11.5417C9.37496 11.2 9.64996 10.9167 9.99996 10.9167C10.35 10.9167 10.625 11.2 10.625 11.5417C10.625 11.8834 10.35 12.1667 9.99996 12.1667ZM11.05 8.70836C10.725 8.92502 10.625 9.06669 10.625 9.30002V9.47502C10.625 9.81669 10.3416 10.1 9.99996 10.1C9.65829 10.1 9.37496 9.81669 9.37496 9.47502V9.30002C9.37496 8.33336 10.0833 7.85836 10.35 7.67502C10.6583 7.46669 10.7583 7.32502 10.7583 7.10836C10.7583 6.69169 10.4166 6.35002 9.99996 6.35002C9.58329 6.35002 9.24163 6.69169 9.24163 7.10836C9.24163 7.45002 8.95829 7.73336 8.61663 7.73336C8.27496 7.73336 7.99163 7.45002 7.99163 7.10836C7.99163 6.00002 8.89163 5.10002 9.99996 5.10002C11.1083 5.10002 12.0083 6.00002 12.0083 7.10836C12.0083 8.05836 11.3083 8.53336 11.05 8.70836Z" fill="#1C1C20"/>
</svg>
