<svg width="22" height="22" viewBox="0 0 22 22" fill="none" xmlns="http://www.w3.org/2000/svg">
<path d="M10.0833 18.2417V3.75837C10.0833 2.38337 9.49667 1.83337 8.03917 1.83337H4.33584C2.87834 1.83337 2.29167 2.38337 2.29167 3.75837V18.2417C2.29167 19.6167 2.87834 20.1667 4.33584 20.1667H8.03917C9.49667 20.1667 10.0833 19.6167 10.0833 18.2417Z" fill="#1C1C20"/>
<path d="M19.7083 18.0033V14.08C19.7083 12.8883 18.7917 11.9166 17.6642 11.9166H13.9608C12.8333 11.9166 11.9167 12.8883 11.9167 14.08V18.0033C11.9167 19.195 12.8333 20.1666 13.9608 20.1666H17.6642C18.7917 20.1666 19.7083 19.195 19.7083 18.0033Z" fill="#1C1C20"/>
<path d="M19.7083 7.92004V3.99671C19.7083 2.80504 18.7917 1.83337 17.6642 1.83337H13.9608C12.8333 1.83337 11.9167 2.80504 11.9167 3.99671V7.92004C11.9167 9.11171 12.8333 10.0834 13.9608 10.0834H17.6642C18.7917 10.0834 19.7083 9.11171 19.7083 7.92004Z" fill="#1C1C20"/>
</svg>
