<svg width="22" height="22" viewBox="0 0 22 22" fill="none" xmlns="http://www.w3.org/2000/svg">
<path d="M8.25 1.83337C5.84833 1.83337 3.89583 3.78587 3.89583 6.18754C3.89583 8.54337 5.73833 10.45 8.14 10.5325C8.21333 10.5234 8.28666 10.5234 8.34166 10.5325C8.36 10.5325 8.36916 10.5325 8.3875 10.5325C8.39666 10.5325 8.39666 10.5325 8.40583 10.5325C10.7525 10.45 12.595 8.54337 12.6042 6.18754C12.6042 3.78587 10.6517 1.83337 8.25 1.83337Z" fill="#1C1C20"/>
<path d="M12.9067 12.9709C10.3492 11.2659 6.17833 11.2659 3.60249 12.9709C2.43833 13.7501 1.79666 14.8042 1.79666 15.9317C1.79666 17.0592 2.43833 18.1042 3.59333 18.8742C4.87666 19.7359 6.56333 20.1667 8.24999 20.1667C9.93666 20.1667 11.6233 19.7359 12.9067 18.8742C14.0617 18.0951 14.7033 17.0501 14.7033 15.9134C14.6942 14.7859 14.0617 13.7409 12.9067 12.9709Z" fill="#1C1C20"/>
<path d="M18.3242 6.72834C18.4708 8.50668 17.2058 10.065 15.455 10.2758C15.4458 10.2758 15.4458 10.2758 15.4367 10.2758H15.4092C15.3542 10.2758 15.2992 10.2758 15.2533 10.2942C14.3642 10.34 13.5483 10.0558 12.9342 9.53334C13.8783 8.69001 14.4192 7.42501 14.3092 6.05001C14.245 5.30751 13.9883 4.62918 13.6033 4.05168C13.9517 3.87751 14.355 3.76751 14.7675 3.73084C16.5642 3.57501 18.1683 4.91334 18.3242 6.72834Z" fill="#1C1C20"/>
<path d="M20.1575 15.2075C20.0842 16.0967 19.5158 16.8667 18.5625 17.3892C17.6458 17.8934 16.4908 18.1317 15.345 18.1042C16.005 17.5084 16.39 16.7659 16.4633 15.9775C16.555 14.8409 16.0142 13.75 14.9325 12.8792C14.3183 12.3934 13.6033 12.0084 12.8242 11.7242C14.85 11.1375 17.3983 11.5317 18.9658 12.7967C19.8092 13.475 20.24 14.3275 20.1575 15.2075Z" fill="#1C1C20"/>
</svg>
