<svg width="22" height="22" viewBox="0 0 22 22" fill="none" xmlns="http://www.w3.org/2000/svg">
<path d="M14.8958 20.625C15.7818 20.625 16.5 19.9067 16.5 19.0208C16.5 18.1348 15.7818 17.4166 14.8958 17.4166C14.0099 17.4166 13.2917 18.1348 13.2917 19.0208C13.2917 19.9067 14.0099 20.625 14.8958 20.625Z" fill="#1C1C20"/>
<path d="M7.56249 20.625C8.44845 20.625 9.16666 19.9067 9.16666 19.0208C9.16666 18.1348 8.44845 17.4166 7.56249 17.4166C6.67654 17.4166 5.95833 18.1348 5.95833 19.0208C5.95833 19.9067 6.67654 20.625 7.56249 20.625Z" fill="#1C1C20"/>
<path d="M4.43666 3.61171L4.25333 5.85754C4.21666 6.28837 4.55583 6.64587 4.98666 6.64587H19.0208C19.4058 6.64587 19.7267 6.35254 19.7542 5.96754C19.8733 4.34504 18.6358 3.02504 17.0133 3.02504H5.74749C5.65583 2.62171 5.47249 2.23671 5.18833 1.91587C4.72999 1.43004 4.08833 1.14587 3.42833 1.14587H1.83333C1.45749 1.14587 1.14583 1.45754 1.14583 1.83337C1.14583 2.20921 1.45749 2.52087 1.83333 2.52087H3.42833C3.71249 2.52087 3.97833 2.64004 4.17083 2.84171C4.36333 3.05254 4.45499 3.32754 4.43666 3.61171Z" fill="#1C1C20"/>
<path d="M18.8008 8.02087H4.73916C4.35416 8.02087 4.04249 8.31421 4.00583 8.69004L3.67583 12.6775C3.54749 14.245 4.77583 15.5834 6.34333 15.5834H16.5367C17.9117 15.5834 19.1217 14.4559 19.2225 13.0809L19.525 8.80004C19.5617 8.37837 19.2317 8.02087 18.8008 8.02087Z" fill="#1C1C20"/>
</svg>
