<svg width="28" height="29" viewBox="0 0 28 29" fill="none" xmlns="http://www.w3.org/2000/svg">
<rect y="0.5" width="28" height="28" rx="14" fill="#1C1C20"/>
<path d="M7.33334 13.0002C7.06001 13.0002 6.83334 12.7735 6.83334 12.5002V10.8335C6.83334 8.90016 8.40668 7.3335 10.3333 7.3335H12C12.2733 7.3335 12.5 7.56016 12.5 7.8335C12.5 8.10683 12.2733 8.3335 12 8.3335H10.3333C8.95334 8.3335 7.83334 9.4535 7.83334 10.8335V12.5002C7.83334 12.7735 7.60668 13.0002 7.33334 13.0002Z" fill="white"/>
<path d="M20.6667 13.0002C20.3933 13.0002 20.1667 12.7735 20.1667 12.5002V10.8335C20.1667 9.4535 19.0467 8.3335 17.6667 8.3335H16C15.7267 8.3335 15.5 8.10683 15.5 7.8335C15.5 7.56016 15.7267 7.3335 16 7.3335H17.6667C19.5933 7.3335 21.1667 8.90016 21.1667 10.8335V12.5002C21.1667 12.7735 20.94 13.0002 20.6667 13.0002Z" fill="white"/>
<path d="M17.6667 21.6665H16.6667C16.3933 21.6665 16.1667 21.4398 16.1667 21.1665C16.1667 20.8932 16.3933 20.6665 16.6667 20.6665H17.6667C19.0467 20.6665 20.1667 19.5465 20.1667 18.1665V17.1665C20.1667 16.8932 20.3933 16.6665 20.6667 16.6665C20.94 16.6665 21.1667 16.8932 21.1667 17.1665V18.1665C21.1667 20.0998 19.5933 21.6665 17.6667 21.6665Z" fill="white"/>
<path d="M12 21.6667H10.3333C8.40668 21.6667 6.83334 20.1 6.83334 18.1667V16.5C6.83334 16.2267 7.06001 16 7.33334 16C7.60668 16 7.83334 16.2267 7.83334 16.5V18.1667C7.83334 19.5467 8.95334 20.6667 10.3333 20.6667H12C12.2733 20.6667 12.5 20.8933 12.5 21.1667C12.5 21.44 12.2733 21.6667 12 21.6667Z" fill="white"/>
<path d="M12 13.9998H10.6667C9.72666 13.9998 9.16666 13.4398 9.16666 12.4998V11.1665C9.16666 10.2265 9.72666 9.6665 10.6667 9.6665H12C12.94 9.6665 13.5 10.2265 13.5 11.1665V12.4998C13.5 13.4398 12.94 13.9998 12 13.9998ZM10.6667 10.6665C10.2733 10.6665 10.1667 10.7732 10.1667 11.1665V12.4998C10.1667 12.8932 10.2733 12.9998 10.6667 12.9998H12C12.3933 12.9998 12.5 12.8932 12.5 12.4998V11.1665C12.5 10.7732 12.3933 10.6665 12 10.6665H10.6667Z" fill="white"/>
<path d="M17.3333 13.9998H16C15.06 13.9998 14.5 13.4398 14.5 12.4998V11.1665C14.5 10.2265 15.06 9.6665 16 9.6665H17.3333C18.2733 9.6665 18.8333 10.2265 18.8333 11.1665V12.4998C18.8333 13.4398 18.2733 13.9998 17.3333 13.9998ZM16 10.6665C15.6067 10.6665 15.5 10.7732 15.5 11.1665V12.4998C15.5 12.8932 15.6067 12.9998 16 12.9998H17.3333C17.7267 12.9998 17.8333 12.8932 17.8333 12.4998V11.1665C17.8333 10.7732 17.7267 10.6665 17.3333 10.6665H16Z" fill="white"/>
<path d="M12 19.3333H10.6667C9.72666 19.3333 9.16666 18.7733 9.16666 17.8333V16.5C9.16666 15.56 9.72666 15 10.6667 15H12C12.94 15 13.5 15.56 13.5 16.5V17.8333C13.5 18.7733 12.94 19.3333 12 19.3333ZM10.6667 16C10.2733 16 10.1667 16.1067 10.1667 16.5V17.8333C10.1667 18.2267 10.2733 18.3333 10.6667 18.3333H12C12.3933 18.3333 12.5 18.2267 12.5 17.8333V16.5C12.5 16.1067 12.3933 16 12 16H10.6667Z" fill="white"/>
<path d="M17.3333 19.3333H16C15.06 19.3333 14.5 18.7733 14.5 17.8333V16.5C14.5 15.56 15.06 15 16 15H17.3333C18.2733 15 18.8333 15.56 18.8333 16.5V17.8333C18.8333 18.7733 18.2733 19.3333 17.3333 19.3333ZM16 16C15.6067 16 15.5 16.1067 15.5 16.5V17.8333C15.5 18.2267 15.6067 18.3333 16 18.3333H17.3333C17.7267 18.3333 17.8333 18.2267 17.8333 17.8333V16.5C17.8333 16.1067 17.7267 16 17.3333 16H16Z" fill="white"/>
</svg>
