<svg width="36" height="36" viewBox="0 0 36 36" fill="none" xmlns="http://www.w3.org/2000/svg">
<rect width="36" height="36" rx="18" fill="#E8F8EE"/>
<path fill-rule="evenodd" clip-rule="evenodd" d="M8.49443 8.05461C8.30135 8.144 8.12824 8.3279 8.05485 8.52159C8.01628 8.62339 7.99949 11.2742 8.00001 17.1743C8.00085 26.4384 7.98735 26.0034 8.29223 26.6051C8.47843 26.9724 8.98145 27.4841 9.34899 27.68C9.97836 28.0155 9.46851 27.9983 18.8336 27.9991C28.3147 28 27.5556 28.0298 27.8492 27.6448C28.0522 27.3788 28.0499 26.9502 27.8442 26.6804C27.7642 26.5755 27.6469 26.46 27.5836 26.4238C27.4926 26.3718 25.6622 26.3525 18.8635 26.3319L10.2586 26.3059L10.0661 26.159C9.96022 26.0783 9.83309 25.9503 9.78346 25.8747C9.69923 25.7461 9.69161 25.1743 9.66727 17.1249C9.64126 8.52816 9.641 8.51252 9.53372 8.36887C9.47461 8.28969 9.36494 8.17913 9.29003 8.1232C9.11729 7.99424 8.70215 7.95843 8.49443 8.05461ZM22.4096 8.89126C21.9247 9.10242 21.7674 9.76905 22.1071 10.1728C22.3125 10.417 22.4221 10.4554 22.9975 10.4847L23.5307 10.512L23.1638 10.955C20.4016 14.291 16.3877 16.8478 12.4321 17.7908C11.7265 17.959 11.5485 18.0638 11.4071 18.3942C11.2555 18.7484 11.3968 19.1957 11.7243 19.398C11.9931 19.5642 12.3081 19.5488 13.167 19.3277C14.5423 18.9736 15.7463 18.5157 17.166 17.8069C18.7103 17.0357 19.8528 16.3032 21.2393 15.1951C22.0354 14.5588 23.6216 13.0061 24.2504 12.2475L24.6697 11.7416L24.6877 12.2308C24.7023 12.6271 24.7264 12.7478 24.8148 12.8669C25.1942 13.3785 25.8332 13.3785 26.2126 12.8669C26.317 12.726 26.3222 12.651 26.335 11.0947C26.3482 9.48731 26.347 9.46719 26.2297 9.26203C26.1637 9.14678 26.0188 9.00239 25.9036 8.93713C25.7009 8.82235 25.6598 8.81964 24.1323 8.82084C22.9488 8.82173 22.5299 8.83883 22.4096 8.89126ZM25.1722 15.5603C24.9611 15.6562 24.7431 15.9222 24.7057 16.13C24.689 16.2223 24.6822 18.0613 24.6905 20.2165C24.7055 24.081 24.7072 24.137 24.8132 24.279C25.0174 24.5525 25.184 24.6379 25.5137 24.6379C25.8433 24.6379 26.0099 24.5525 26.2141 24.279C26.3205 24.1365 26.3216 24.0943 26.3216 20.0769C26.3216 16.0596 26.3205 16.0174 26.2141 15.8749C26.155 15.7957 26.0454 15.6851 25.9705 15.6292C25.7979 15.5004 25.3833 15.4646 25.1722 15.5603ZM21.7581 17.2754C21.6622 17.34 21.5356 17.4748 21.4767 17.5751C21.3719 17.7536 21.3696 17.8236 21.3696 20.9147V24.0721L21.4999 24.2645C21.6441 24.4773 21.9728 24.6639 22.2037 24.6639C22.4345 24.6639 22.7632 24.4773 22.9074 24.2645L23.0377 24.0721V20.9147C23.0377 17.8236 23.0354 17.7536 22.9306 17.5751C22.7673 17.2971 22.5248 17.1579 22.2037 17.1579C22.0085 17.1579 21.8834 17.1909 21.7581 17.2754ZM18.422 18.9955C18.3261 19.0601 18.1995 19.195 18.1406 19.2952C18.037 19.4716 18.0335 19.5512 18.0335 21.7748V24.0721L18.1639 24.2645C18.308 24.4773 18.6368 24.6639 18.8676 24.6639C19.0984 24.6639 19.4271 24.4773 19.5713 24.2645L19.7016 24.0721V21.7748C19.7016 19.5512 19.6981 19.4716 19.5945 19.2952C19.4312 19.0172 19.1887 18.878 18.8676 18.878C18.6725 18.878 18.5474 18.911 18.422 18.9955ZM15.1326 20.5991C15.0279 20.6544 14.8871 20.7883 14.8199 20.8965C14.7015 21.0868 14.6969 21.1359 14.6798 22.379C14.6686 23.193 14.6835 23.7675 14.7203 23.9448C14.9173 24.8937 16.1456 24.8937 16.3426 23.9448C16.3795 23.7675 16.3943 23.193 16.3832 22.379C16.3664 21.1612 16.3595 21.0836 16.2508 20.9089C16.0156 20.5308 15.5212 20.3938 15.1326 20.5991ZM11.7965 22.2671C11.4973 22.4252 11.3857 22.6565 11.3515 23.1898C11.3148 23.7605 11.3941 24.1729 11.5788 24.372C12.0701 24.902 12.8573 24.662 13.0086 23.9363C13.0949 23.522 13.0389 22.779 12.9049 22.5623C12.6802 22.1987 12.1788 22.0652 11.7965 22.2671Z" fill="#1DB954"/>
</svg>
