<svg width="22" height="22" viewBox="0 0 22 22" fill="none" xmlns="http://www.w3.org/2000/svg">
<path d="M11 1.83337C8.59833 1.83337 6.64583 3.78587 6.64583 6.18754C6.64583 8.54337 8.48833 10.45 10.89 10.5325C10.9633 10.5234 11.0367 10.5234 11.0917 10.5325C11.11 10.5325 11.1192 10.5325 11.1375 10.5325C11.1467 10.5325 11.1467 10.5325 11.1558 10.5325C13.5025 10.45 15.345 8.54337 15.3542 6.18754C15.3542 3.78587 13.4017 1.83337 11 1.83337Z" fill="#1C1C20"/>
<path d="M15.6567 12.9709C13.0992 11.2659 8.92833 11.2659 6.35249 12.9709C5.18833 13.7501 4.54666 14.8042 4.54666 15.9317C4.54666 17.0592 5.18833 18.1042 6.34333 18.8742C7.62666 19.7359 9.31333 20.1667 11 20.1667C12.6867 20.1667 14.3733 19.7359 15.6567 18.8742C16.8117 18.0951 17.4533 17.0501 17.4533 15.9134C17.4442 14.7859 16.8117 13.7409 15.6567 12.9709ZM12.8333 16.6192H11.6875V17.7651C11.6875 18.1409 11.3758 18.4526 11 18.4526C10.6242 18.4526 10.3125 18.1409 10.3125 17.7651V16.6192H9.16666C8.79083 16.6192 8.47916 16.3076 8.47916 15.9317C8.47916 15.5559 8.79083 15.2442 9.16666 15.2442H10.3125V14.0984C10.3125 13.7226 10.6242 13.4109 11 13.4109C11.3758 13.4109 11.6875 13.7226 11.6875 14.0984V15.2442H12.8333C13.2092 15.2442 13.5208 15.5559 13.5208 15.9317C13.5208 16.3076 13.2092 16.6192 12.8333 16.6192Z" fill="#1C1C20"/>
</svg>
