<svg width="21" height="20" viewBox="0 0 21 20" fill="none" xmlns="http://www.w3.org/2000/svg">
<path d="M18.8334 4.16699V5.83366C18.8334 7.35866 18.1417 8.18366 16.75 8.30866C16.6167 8.32533 16.475 8.33366 16.3334 8.33366H4.66669C4.52502 8.33366 4.38335 8.32533 4.25002 8.30866C2.85835 8.18366 2.16669 7.35866 2.16669 5.83366V4.16699C2.16669 2.50033 3.00002 1.66699 4.66669 1.66699H16.3334C18 1.66699 18.8334 2.50033 18.8334 4.16699Z" fill="white"/>
<path d="M5.08333 9.375C4.625 9.375 4.25 9.75 4.25 10.2083V15.8333C4.25 17.5 4.66667 18.3333 6.75 18.3333H14.25C16.3333 18.3333 16.75 17.5 16.75 15.8333V10.2083C16.75 9.75 16.375 9.375 15.9167 9.375H5.08333ZM12.0167 13.125H8.98333C8.64167 13.125 8.35833 12.8417 8.35833 12.5C8.35833 12.1583 8.64167 11.875 8.98333 11.875H12.0167C12.3583 11.875 12.6417 12.1583 12.6417 12.5C12.6417 12.8417 12.3583 13.125 12.0167 13.125Z" fill="white"/>
</svg>
