<svg width="21" height="21" viewBox="0 0 21 21" fill="none" xmlns="http://www.w3.org/2000/svg">
<path d="M12.525 16.1834C12.3667 16.1834 12.2083 16.1251 12.0833 16.0001C11.8417 15.7584 11.8417 15.3584 12.0833 15.1168L16.7 10.5001L12.0833 5.88343C11.8417 5.64176 11.8417 5.24176 12.0833 5.0001C12.325 4.75843 12.725 4.75843 12.9667 5.0001L18.025 10.0584C18.2667 10.3001 18.2667 10.7001 18.025 10.9418L12.9667 16.0001C12.8417 16.1251 12.6834 16.1834 12.525 16.1834Z" fill="white"/>
<path d="M17.4416 11.125H3.41663C3.07496 11.125 2.79163 10.8417 2.79163 10.5C2.79163 10.1583 3.07496 9.875 3.41663 9.875H17.4416C17.7833 9.875 18.0666 10.1583 18.0666 10.5C18.0666 10.8417 17.7833 11.125 17.4416 11.125Z" fill="white"/>
</svg>
