<svg width="16" height="17" viewBox="0 0 16 17" fill="none" xmlns="http://www.w3.org/2000/svg">
<path d="M11.1667 2.87325V1.83325C11.1667 1.55992 10.94 1.33325 10.6667 1.33325C10.3933 1.33325 10.1667 1.55992 10.1667 1.83325V2.83325H5.83332V1.83325C5.83332 1.55992 5.60666 1.33325 5.33332 1.33325C5.05999 1.33325 4.83332 1.55992 4.83332 1.83325V2.87325C3.03332 3.03992 2.15999 4.11325 2.02666 5.70658C2.01332 5.89992 2.17332 6.05992 2.35999 6.05992H13.64C13.8333 6.05992 13.9933 5.89325 13.9733 5.70658C13.84 4.11325 12.9667 3.03992 11.1667 2.87325Z" fill="#1C1C20"/>
<path d="M13.3333 7.06006H2.66667C2.3 7.06006 2 7.36006 2 7.72673V11.8334C2 13.8334 3 15.1667 5.33333 15.1667H10.6667C13 15.1667 14 13.8334 14 11.8334V7.72673C14 7.36006 13.7 7.06006 13.3333 7.06006ZM9.89333 10.4934L9.56 10.8334H9.55333L7.53333 12.8534C7.44667 12.9401 7.26667 13.0334 7.14 13.0467L6.24 13.1801C5.91333 13.2267 5.68667 12.9934 5.73333 12.6734L5.86 11.7667C5.88 11.6401 5.96667 11.4667 6.05333 11.3734L8.08 9.35339L8.41333 9.01339C8.63333 8.79339 8.88 8.63339 9.14667 8.63339C9.37333 8.63339 9.62 8.74006 9.89333 9.01339C10.4933 9.61339 10.3 10.0867 9.89333 10.4934Z" fill="#1C1C20"/>
</svg>
