<svg width="36" height="36" viewBox="0 0 36 36" fill="none" xmlns="http://www.w3.org/2000/svg">
<rect width="36" height="36" rx="18" fill="#E8F8EE"/>
<path d="M21.4917 9.66663H14.5083C11.475 9.66663 9.66666 11.475 9.66666 14.5083V21.4833C9.66666 24.525 11.475 26.3333 14.5083 26.3333H21.4833C24.5167 26.3333 26.325 24.525 26.325 21.4916V14.5083C26.3333 11.475 24.525 9.66663 21.4917 9.66663ZM15.5917 22.0833C15.5917 22.3166 15.4083 22.5 15.175 22.5H12.85C12.6167 22.5 12.4333 22.3166 12.4333 22.0833V18.2333C12.4333 17.7083 12.8583 17.2833 13.3833 17.2833H15.175C15.4083 17.2833 15.5917 17.4666 15.5917 17.7V22.0833ZM19.575 22.0833C19.575 22.3166 19.3917 22.5 19.1583 22.5H16.8333C16.6 22.5 16.4167 22.3166 16.4167 22.0833V14.45C16.4167 13.925 16.8417 13.5 17.3667 13.5H18.6333C19.1583 13.5 19.5833 13.925 19.5833 14.45V22.0833H19.575ZM23.5667 22.0833C23.5667 22.3166 23.3833 22.5 23.15 22.5H20.825C20.5917 22.5 20.4083 22.3166 20.4083 22.0833V19.125C20.4083 18.8916 20.5917 18.7083 20.825 18.7083H22.6167C23.1417 18.7083 23.5667 19.1333 23.5667 19.6583V22.0833Z" fill="#1DB954"/>
</svg>
