<svg width="21" height="20" viewBox="0 0 21 20" fill="none" xmlns="http://www.w3.org/2000/svg">
<path d="M18.0584 4.35834C16.7167 4.225 15.375 4.125 14.025 4.05V4.04167L13.8417 2.95833C13.7167 2.19167 13.5334 1.04167 11.5834 1.04167H9.40005C7.45838 1.04167 7.27505 2.14167 7.14172 2.95L6.96672 4.01667C6.19172 4.06667 5.41672 4.11667 4.64172 4.19167L2.94172 4.35834C2.59172 4.39167 2.34172 4.7 2.37505 5.04167C2.40838 5.38334 2.70838 5.63334 3.05838 5.6L4.75838 5.43334C9.12505 5 13.5251 5.16667 17.9417 5.60834C17.9667 5.60834 17.9834 5.60834 18.0084 5.60834C18.3251 5.60834 18.6 5.36667 18.6334 5.04167C18.6584 4.7 18.4084 4.39167 18.0584 4.35834Z" fill="white"/>
<path d="M16.525 6.78333C16.325 6.575 16.05 6.45833 15.7666 6.45833H5.23329C4.94995 6.45833 4.66662 6.575 4.47495 6.78333C4.28329 6.99167 4.17495 7.275 4.19162 7.56667L4.70829 16.1167C4.79995 17.3833 4.91662 18.9667 7.82495 18.9667H13.175C16.0833 18.9667 16.2 17.3917 16.2916 16.1167L16.8083 7.575C16.825 7.275 16.7166 6.99167 16.525 6.78333ZM11.8833 14.7917H9.10829C8.76662 14.7917 8.48329 14.5083 8.48329 14.1667C8.48329 13.825 8.76662 13.5417 9.10829 13.5417H11.8833C12.225 13.5417 12.5083 13.825 12.5083 14.1667C12.5083 14.5083 12.225 14.7917 11.8833 14.7917ZM12.5833 11.4583H8.41662C8.07495 11.4583 7.79162 11.175 7.79162 10.8333C7.79162 10.4917 8.07495 10.2083 8.41662 10.2083H12.5833C12.925 10.2083 13.2083 10.4917 13.2083 10.8333C13.2083 11.175 12.925 11.4583 12.5833 11.4583Z" fill="white"/>
</svg>
