<svg width="21" height="20" viewBox="0 0 21 20" fill="none" xmlns="http://www.w3.org/2000/svg">
<path d="M17.583 8.49175H15.1747C13.1997 8.49175 11.5913 6.88341 11.5913 4.90841V2.50008C11.5913 2.04175 11.2163 1.66675 10.758 1.66675H7.22467C4.65801 1.66675 2.58301 3.33342 2.58301 6.30841V13.6917C2.58301 16.6667 4.65801 18.3334 7.22467 18.3334H13.7747C16.3413 18.3334 18.4163 16.6667 18.4163 13.6917V9.32508C18.4163 8.86675 18.0413 8.49175 17.583 8.49175ZM10.733 13.1501L9.06634 14.8167C9.00801 14.8751 8.93301 14.9251 8.85801 14.9501C8.78301 14.9834 8.70801 15.0001 8.62467 15.0001C8.54134 15.0001 8.46634 14.9834 8.39134 14.9501C8.32467 14.9251 8.25801 14.8751 8.20801 14.8251C8.19967 14.8167 8.19134 14.8167 8.19134 14.8084L6.52467 13.1417C6.28301 12.9001 6.28301 12.5001 6.52467 12.2584C6.76634 12.0167 7.16634 12.0167 7.40801 12.2584L7.99967 12.8667V9.37508C7.99967 9.03341 8.28301 8.75008 8.62467 8.75008C8.96634 8.75008 9.24967 9.03341 9.24967 9.37508V12.8667L9.84967 12.2667C10.0913 12.0251 10.4913 12.0251 10.733 12.2667C10.9747 12.5084 10.9747 12.9084 10.733 13.1501Z" fill="white"/>
<path d="M15.0251 7.34158C15.8167 7.34991 16.9167 7.34991 17.8584 7.34991C18.3334 7.34991 18.5834 6.79158 18.2501 6.45825C17.0501 5.24991 14.9001 3.07491 13.6667 1.84158C13.3251 1.49991 12.7334 1.73325 12.7334 2.20825V5.11658C12.7334 6.33325 13.7667 7.34158 15.0251 7.34158Z" fill="white"/>
</svg>
