<svg width="21" height="20" viewBox="0 0 21 20" fill="none" xmlns="http://www.w3.org/2000/svg">
<path d="M18.2144 18.3333H3.21436C2.87269 18.3333 2.58936 18.05 2.58936 17.7083C2.58936 17.3667 2.87269 17.0833 3.21436 17.0833H18.2144C18.556 17.0833 18.8394 17.3667 18.8394 17.7083C18.8394 18.05 18.556 18.3333 18.2144 18.3333Z" fill="#909094"/>
<path d="M16.5643 2.9C14.9477 1.28334 13.3643 1.24167 11.706 2.9L10.6977 3.90834C10.6143 3.99167 10.581 4.125 10.6143 4.24167C11.2477 6.45 13.0143 8.21667 15.2227 8.85C15.256 8.85834 15.2893 8.86667 15.3227 8.86667C15.4143 8.86667 15.4977 8.83334 15.5643 8.76667L16.5643 7.75834C17.3893 6.94167 17.7893 6.15 17.7893 5.35C17.7977 4.525 17.3977 3.725 16.5643 2.9Z" fill="#909094"/>
<path d="M13.7228 9.60834C13.4811 9.49167 13.2478 9.375 13.0228 9.24167C12.8395 9.13334 12.6645 9.01667 12.4895 8.89167C12.3478 8.8 12.1811 8.66667 12.0228 8.53334C12.0061 8.525 11.9478 8.475 11.8811 8.40834C11.6061 8.175 11.2978 7.87501 11.0228 7.54167C10.9978 7.52501 10.9561 7.46667 10.8978 7.39167C10.8145 7.29167 10.6728 7.125 10.5478 6.93334C10.4478 6.80834 10.3311 6.625 10.2228 6.44167C10.0895 6.21667 9.97279 5.99167 9.85612 5.75834C9.70316 5.43056 9.27295 5.33318 9.01717 5.58895L4.33113 10.275C4.22279 10.3833 4.12279 10.5917 4.09779 10.7333L3.64779 13.925C3.56446 14.4917 3.72279 15.025 4.07279 15.3833C4.37279 15.675 4.78946 15.8333 5.23946 15.8333C5.33946 15.8333 5.43946 15.825 5.53946 15.8083L8.73946 15.3583C8.88946 15.3333 9.09779 15.2333 9.19779 15.125L13.8916 10.4312C14.1422 10.1806 14.0481 9.74928 13.7228 9.60834Z" fill="#909094"/>
</svg>
