<svg width="134" height="133" viewBox="0 0 134 133" fill="none" xmlns="http://www.w3.org/2000/svg">
<path opacity="0.4" d="M16.9538 65.107L17.9152 56.3597C18.4834 51.1909 23.1777 47.3809 28.3963 47.9545C37.3921 48.9433 41.7692 42.9859 38.1041 34.6858C36.0113 29.9286 38.1912 24.283 42.998 22.1957L52.1371 18.2204C56.3202 16.316 61.2367 18.2649 63.1411 22.448L63.584 23.4524C67.1994 31.747 74.5551 32.5555 79.9355 25.2496L80.586 24.3654C83.3535 20.6958 88.5759 19.8614 92.2455 22.6289L100.303 28.4944C104.542 31.5759 105.443 37.5602 102.367 41.7492C96.9867 49.0551 99.9653 55.8211 108.961 56.8098C114.13 57.378 117.94 62.0723 117.366 67.2909L116.405 76.0382C115.837 81.2071 111.142 85.017 105.924 84.4434C96.9279 83.4546 92.5508 89.4121 96.2159 97.7122C98.3032 102.519 96.1288 108.115 91.322 110.202L82.1829 114.178C77.9998 116.082 73.0833 114.133 71.179 109.95L70.736 108.946C67.1207 100.651 59.765 99.8424 54.3845 107.148L53.734 108.033C50.9665 111.702 45.7441 112.537 42.0745 109.769L34.0171 103.904C29.7784 100.822 28.8768 94.8377 31.9529 90.6487C37.3334 83.3428 34.3548 76.5769 25.3589 75.5881C20.1404 75.0145 16.3856 70.2759 16.9538 65.107Z" fill="#1DB954"/>
<path d="M65.3597 82.3489C74.2806 83.3295 82.3073 76.8925 83.2878 67.9716C84.2684 59.0507 77.8314 51.024 68.9105 50.0435C59.9896 49.063 51.9629 55.4999 50.9824 64.4208C50.0018 73.3417 56.4388 81.3684 65.3597 82.3489Z" fill="#1DB954"/>
</svg>
