<svg width="14" height="15" viewBox="0 0 14 15" fill="none" xmlns="http://www.w3.org/2000/svg">
<path d="M11.3808 3.91249L7.91583 1.91166C7.35 1.58499 6.65 1.58499 6.07833 1.91166L2.61916 3.91249C2.05333 4.23916 1.70333 4.84582 1.70333 5.50499V9.49499C1.70333 10.1483 2.05333 10.755 2.61916 11.0875L6.08416 13.0883C6.65 13.415 7.35 13.415 7.92166 13.0883L11.3867 11.0875C11.9525 10.7608 12.3025 10.1542 12.3025 9.49499V5.50499C12.2967 4.84582 11.9467 4.24499 11.3808 3.91249ZM6.5625 5.02082C6.5625 4.78166 6.76083 4.58332 7 4.58332C7.23916 4.58332 7.4375 4.78166 7.4375 5.02082V8.08332C7.4375 8.32249 7.23916 8.52082 7 8.52082C6.76083 8.52082 6.5625 8.32249 6.5625 8.08332V5.02082ZM7.53666 10.2008C7.5075 10.2708 7.46666 10.335 7.41416 10.3933C7.30333 10.5042 7.1575 10.5625 7 10.5625C6.92416 10.5625 6.84833 10.545 6.77833 10.5158C6.7025 10.4867 6.64416 10.4458 6.58583 10.3933C6.53333 10.335 6.4925 10.2708 6.4575 10.2008C6.42833 10.1308 6.41666 10.055 6.41666 9.97916C6.41666 9.82749 6.475 9.67582 6.58583 9.56499C6.64416 9.51249 6.7025 9.47166 6.77833 9.44249C6.99416 9.34916 7.25083 9.40166 7.41416 9.56499C7.46666 9.62332 7.5075 9.68166 7.53666 9.75749C7.56583 9.82749 7.58333 9.90332 7.58333 9.97916C7.58333 10.055 7.56583 10.1308 7.53666 10.2008Z" fill="#909094"/>
</svg>
