<svg width="20" height="20" viewBox="0 0 20 20" fill="none" xmlns="http://www.w3.org/2000/svg">
<path d="M17.1833 7.04168C16.3083 3.19168 12.95 1.45834 10 1.45834C10 1.45834 10 1.45834 9.99167 1.45834C7.05 1.45834 3.68334 3.18334 2.80834 7.03334C1.83334 11.3333 4.46667 14.975 6.85 17.2667C7.73334 18.1167 8.86667 18.5417 10 18.5417C11.1333 18.5417 12.2667 18.1167 13.1417 17.2667C15.525 14.975 18.1583 11.3417 17.1833 7.04168ZM10 11.2167C8.55 11.2167 7.375 10.0417 7.375 8.59168C7.375 7.14168 8.55 5.96668 10 5.96668C11.45 5.96668 12.625 7.14168 12.625 8.59168C12.625 10.0417 11.45 11.2167 10 11.2167Z" fill="#1DB954"/>
</svg>
