<svg width="21" height="20" viewBox="0 0 21 20" fill="none" xmlns="http://www.w3.org/2000/svg">
<g clip-path="url(#clip0_881_531)">
<path d="M17.6833 7.04168C16.8083 3.19168 13.45 1.45834 10.5 1.45834C10.5 1.45834 10.5 1.45834 10.4917 1.45834C7.54999 1.45834 4.18332 3.18334 3.30832 7.03334C2.33332 11.3333 4.96665 14.975 7.34999 17.2667C8.23332 18.1167 9.36665 18.5417 10.5 18.5417C11.6333 18.5417 12.7667 18.1167 13.6417 17.2667C16.025 14.975 18.6583 11.3417 17.6833 7.04168ZM10.5 11.2167C9.04999 11.2167 7.87499 10.0417 7.87499 8.59168C7.87499 7.14168 9.04999 5.96668 10.5 5.96668C11.95 5.96668 13.125 7.14168 13.125 8.59168C13.125 10.0417 11.95 11.2167 10.5 11.2167Z" fill="#909094"/>
</g>
<defs>
<clipPath id="clip0_881_531">
<rect width="20" height="20" fill="white" transform="translate(0.5)"/>
</clipPath>
</defs>
</svg>
