<svg width="550" height="551" viewBox="0 0 550 551" fill="none" xmlns="http://www.w3.org/2000/svg">
<path d="M16.9648 206.091V210.765" stroke="#D2D8DF" stroke-width="2.921" stroke-linecap="round"/>
<path d="M6.4668 208.623L10.286 212.554" stroke="#D2D8DF" stroke-width="2.921" stroke-linecap="round"/>
<path d="M2 219.089H7.4003" stroke="#D2D8DF" stroke-width="2.921" stroke-linecap="round"/>
<path d="M6.02832 229.741L9.84752 225.809" stroke="#D2D8DF" stroke-width="2.921" stroke-linecap="round"/>
<path d="M16.9648 231.018V226.345" stroke="#D2D8DF" stroke-width="2.921" stroke-linecap="round"/>
<path d="M24.7546 227.903L21.6387 224.787" stroke="#D2D8DF" stroke-width="2.921" stroke-linecap="round"/>
<path d="M30.9863 220.113H26.3125" stroke="#D2D8DF" stroke-width="2.921" stroke-linecap="round"/>
<path d="M27.8708 209.207L24.7549 212.323" stroke="#D2D8DF" stroke-width="2.921" stroke-linecap="round"/>
<path d="M267.795 2V5.1159" stroke="#D2D8DF" stroke-width="2.921" stroke-linecap="round"/>
<path d="M258.447 11.3477H261.563" stroke="#D2D8DF" stroke-width="2.921" stroke-linecap="round"/>
<path d="M267.795 20.6954V17.5795" stroke="#D2D8DF" stroke-width="2.921" stroke-linecap="round"/>
<path d="M275.585 11.3477H272.469" stroke="#D2D8DF" stroke-width="2.921" stroke-linecap="round"/>
<path d="M87.0732 132.868V137.542" stroke="#D2D8DF" stroke-width="2.921" stroke-linecap="round"/>
<path d="M73.0518 146.889H77.7256" stroke="#D2D8DF" stroke-width="2.921" stroke-linecap="round"/>
<path d="M87.0732 159.353V154.679" stroke="#D2D8DF" stroke-width="2.921" stroke-linecap="round"/>
<path d="M99.5362 146.889H94.8623" stroke="#D2D8DF" stroke-width="2.921" stroke-linecap="round"/>
<path d="M422.427 302.745C426.151 302.745 429.17 305.766 429.17 309.49C429.17 313.215 426.151 316.234 422.427 316.234C418.704 316.234 415.685 313.215 415.685 309.49" stroke="#D2D8DF" stroke-width="2.921" stroke-linecap="round"/>
<path fill-rule="evenodd" clip-rule="evenodd" d="M453.285 241.556C457.289 240.307 463.426 235.41 464.846 230.142C466.135 234.799 471.535 240.307 476.407 240.724C470.922 242.666 465.678 248.435 464.846 252.968C464.28 248.348 457.027 242.229 453.285 241.556Z" fill="#EBECEE"/>
<path fill-rule="evenodd" clip-rule="evenodd" d="M42.3154 300.668C44.3179 300.043 47.3851 297.596 48.0953 294.962C48.7395 297.289 51.439 300.043 53.8752 300.252C51.1334 301.222 48.512 304.107 48.0953 306.374C47.8123 304.064 44.1856 301.004 42.3154 300.668Z" fill="#EBECEE"/>
<path fill-rule="evenodd" clip-rule="evenodd" d="M79.4763 83.9437C79.4763 86.8331 77.1352 89.1735 74.2479 89.1735C71.3593 89.1735 69.0195 86.8331 69.0195 83.9437C69.0195 81.0557 71.3593 78.714 74.2479 78.714C77.1352 78.714 79.4763 81.0557 79.4763 83.9437Z" fill="#D1D8DF"/>
<path fill-rule="evenodd" clip-rule="evenodd" d="M428.606 97.9863C428.606 102.814 424.692 106.727 419.867 106.727C415.039 106.727 411.127 102.814 411.127 97.9863C411.127 93.1587 415.039 89.2453 419.867 89.2453C424.692 89.2453 428.606 93.1587 428.606 97.9863Z" fill="#EBECEE"/>
<path fill-rule="evenodd" clip-rule="evenodd" d="M549.65 74.3039C549.65 78.1339 546.547 81.2376 542.719 81.2376C538.89 81.2376 535.787 78.1339 535.787 74.3039C535.787 70.4739 538.89 67.3702 542.719 67.3702C546.547 67.3702 549.65 70.4739 549.65 74.3039Z" fill="#EBECEE"/>
<path fill-rule="evenodd" clip-rule="evenodd" d="M177.19 398.136C177.19 400.551 175.234 402.507 172.82 402.507C170.407 402.507 168.451 400.551 168.451 398.136C168.451 395.722 170.407 393.765 172.82 393.765C175.234 393.765 177.19 395.722 177.19 398.136Z" stroke="#D2D8DF" stroke-width="2.921" stroke-linecap="round"/>
<path fill-rule="evenodd" clip-rule="evenodd" d="M174.591 50.3459C174.591 53.2353 172.249 55.5756 169.362 55.5756C166.475 55.5756 164.134 53.2353 164.134 50.3459C164.134 47.4578 166.475 45.1161 169.362 45.1161C172.249 45.1161 174.591 47.4578 174.591 50.3459Z" stroke="#D2D8DF" stroke-width="2.921" stroke-linecap="round"/>
<path fill-rule="evenodd" clip-rule="evenodd" d="M307.956 446.539C304.615 447.811 300.876 446.132 299.605 442.791C298.333 439.449 300.011 435.708 303.353 434.438C306.693 433.167 310.432 434.844 311.703 438.186C312.975 441.528 311.297 445.268 307.956 446.539Z" stroke="#D2D8DF" stroke-width="2.921" stroke-linecap="round"/>
<path fill-rule="evenodd" clip-rule="evenodd" d="M305.965 322.937H178.206C169.213 322.937 161.853 315.555 161.853 306.533V124.342C161.853 115.319 169.213 107.941 178.206 107.941H305.965C314.961 107.941 322.321 115.319 322.321 124.342V306.533C322.321 315.555 314.961 322.937 305.965 322.937Z" fill="#E0E2EE"/>
<path fill-rule="evenodd" clip-rule="evenodd" d="M295.058 330.727H167.299C158.307 330.727 150.946 323.345 150.946 314.322V132.132C150.946 123.109 158.307 115.73 167.299 115.73H295.058C304.054 115.73 311.415 123.109 311.415 132.132V314.322C311.415 323.345 304.054 330.727 295.058 330.727Z" fill="#E8EBF2"/>
<path fill-rule="evenodd" clip-rule="evenodd" d="M284.451 336.877H156.428C147.417 336.877 140.041 329.525 140.041 320.54V139.103C140.041 130.118 147.417 122.77 156.428 122.77H284.451C293.466 122.77 300.841 130.118 300.841 139.103V320.54C300.841 329.525 293.466 336.877 284.451 336.877Z" fill="#D8DBEA"/>
<path fill-rule="evenodd" clip-rule="evenodd" d="M284.451 336.877H156.428C147.417 336.877 140.041 329.525 140.041 320.54V139.103C140.041 130.118 147.417 122.77 156.428 122.77H284.451C293.466 122.77 300.841 130.118 300.841 139.103V320.54C300.841 329.525 293.466 336.877 284.451 336.877Z" fill="#F1F2F7"/>
<path fill-rule="evenodd" clip-rule="evenodd" d="M265.998 178.048H171.437C168.737 178.048 166.526 175.945 166.526 173.376C166.526 170.804 168.737 168.701 171.437 168.701H265.998C268.698 168.701 270.909 170.804 270.909 173.376C270.909 175.945 268.698 178.048 265.998 178.048Z" fill="#E0E2EE"/>
<path fill-rule="evenodd" clip-rule="evenodd" d="M265.998 206.091H171.437C168.737 206.091 166.526 203.988 166.526 201.419C166.526 198.847 168.737 196.744 171.437 196.744H265.998C268.698 196.744 270.909 198.847 270.909 201.419C270.909 203.988 268.698 206.091 265.998 206.091Z" fill="#E0E2EE"/>
<path fill-rule="evenodd" clip-rule="evenodd" d="M265.998 234.134H171.437C168.737 234.134 166.526 232.031 166.526 229.462C166.526 226.893 168.737 224.787 171.437 224.787H265.998C268.698 224.787 270.909 226.893 270.909 229.462C270.909 232.031 268.698 234.134 265.998 234.134Z" fill="#E0E2EE"/>
<path fill-rule="evenodd" clip-rule="evenodd" d="M265.998 262.177H171.437C168.737 262.177 166.526 260.074 166.526 257.505C166.526 254.933 168.737 252.83 171.437 252.83H265.998C268.698 252.83 270.909 254.933 270.909 257.505C270.909 260.074 268.698 262.177 265.998 262.177Z" fill="#E0E2EE"/>
<path fill-rule="evenodd" clip-rule="evenodd" d="M220.796 290.221H171.458C168.746 290.221 166.526 288.118 166.526 285.548C166.526 282.976 168.746 280.873 171.458 280.873H220.796C223.508 280.873 225.728 282.976 225.728 285.548C225.728 288.118 223.508 290.221 220.796 290.221Z" fill="#E0E2EE"/>
<path fill-rule="evenodd" clip-rule="evenodd" d="M320.38 253.978C301.472 272.883 272.199 275.015 250.948 260.419C248.232 258.521 245.647 256.388 243.236 253.978C241.995 252.741 240.826 251.464 239.723 250.12C237.519 247.437 235.588 244.575 234.006 241.617C231.219 236.622 229.324 231.322 228.289 225.844C224.95 208.663 229.942 190.17 243.236 176.882C256.562 163.555 275.058 158.596 292.242 161.902C297.717 162.968 303.022 164.863 308.018 167.618C310.98 169.235 313.803 171.166 316.491 173.37C317.831 174.468 319.108 175.642 320.345 176.882C322.759 179.293 324.924 181.873 326.787 184.593C341.39 205.837 339.253 235.108 320.38 253.978Z" fill="white" fill-opacity="0.1"/>
<path fill-rule="evenodd" clip-rule="evenodd" d="M315.089 250.254C295.417 269.929 263.538 269.926 243.863 250.254C224.213 230.605 224.213 198.722 243.888 179.05C263.538 159.4 295.417 159.4 315.067 179.05C334.739 198.722 334.739 230.605 315.089 250.254ZM325.185 168.943C299.935 143.693 259.017 143.693 233.767 168.943C208.521 194.189 208.499 235.132 233.745 260.382C256.726 283.356 292.745 285.428 318.08 266.565C320.554 264.72 322.937 262.652 325.21 260.382C327.48 258.109 329.548 255.726 331.389 253.252C350.252 227.914 348.162 191.92 325.185 168.943Z" fill="#E0E2EE"/>
<path fill-rule="evenodd" clip-rule="evenodd" d="M424.556 355.563L423.496 356.624C416.483 363.64 404.998 363.64 397.981 356.624L333.226 291.868L359.8 265.293L424.556 330.049C431.573 337.066 431.573 348.547 424.556 355.563Z" fill="url(#paint0_linear_51_2330)"/>
<path fill-rule="evenodd" clip-rule="evenodd" d="M332.785 251.272L351.921 270.407L338.336 283.989L319.204 264.853C321.729 262.971 324.157 260.86 326.48 258.544C328.796 256.228 330.907 253.797 332.785 251.272Z" fill="#E0E2EE"/>
<path fill-rule="evenodd" clip-rule="evenodd" d="M423.587 329.253L397.181 355.654L392.428 350.897L418.829 324.495L423.587 329.253Z" fill="#1DB954"/>
<path fill-rule="evenodd" clip-rule="evenodd" d="M361.268 266.208L334.14 293.336L330.109 289.306L357.238 262.177L361.268 266.208Z" fill="#1DB954"/>
<path fill-rule="evenodd" clip-rule="evenodd" d="M302.067 172.282L235.537 238.808C233.032 234.318 231.328 229.553 230.401 224.628L287.886 167.143C292.808 168.105 297.576 169.805 302.067 172.282Z" fill="white" fill-opacity="0.5"/>
<path fill-rule="evenodd" clip-rule="evenodd" d="M323.878 188.094L251.952 255.946C249.376 254.25 246.924 252.341 244.638 250.185C243.461 249.074 242.348 247.936 241.307 246.733L314.109 178.048C315.384 179.034 316.594 180.084 317.768 181.195C320.054 183.352 322.111 185.661 323.878 188.094Z" fill="white" fill-opacity="0.5"/>
<path d="M91.7709 550V515.44H98.3949L113.419 538.48V515.44H120.043V550H113.419L98.3949 526.96V550H91.7709ZM137.444 550.72C134.836 550.72 132.548 550.136 130.58 548.968C128.612 547.8 127.076 546.192 125.972 544.144C124.884 542.08 124.34 539.712 124.34 537.04C124.34 534.336 124.9 531.96 126.02 529.912C127.14 527.848 128.684 526.24 130.652 525.088C132.62 523.936 134.884 523.36 137.444 523.36C140.052 523.36 142.34 523.944 144.308 525.112C146.292 526.28 147.836 527.896 148.94 529.96C150.044 532.008 150.596 534.368 150.596 537.04C150.596 539.728 150.036 542.104 148.916 544.168C147.812 546.216 146.268 547.824 144.284 548.992C142.316 550.144 140.036 550.72 137.444 550.72ZM137.444 544.624C139.54 544.624 141.1 543.92 142.124 542.512C143.164 541.088 143.684 539.264 143.684 537.04C143.684 534.736 143.156 532.896 142.1 531.52C141.06 530.144 139.508 529.456 137.444 529.456C136.02 529.456 134.852 529.776 133.94 530.416C133.028 531.056 132.348 531.944 131.9 533.08C131.468 534.216 131.252 535.536 131.252 537.04C131.252 539.36 131.772 541.208 132.812 542.584C133.868 543.944 135.412 544.624 137.444 544.624ZM163.563 550V524.08H169.323V530.416L168.699 529.6C169.035 528.704 169.483 527.888 170.043 527.152C170.603 526.416 171.291 525.808 172.107 525.328C172.731 524.944 173.411 524.648 174.147 524.44C174.883 524.216 175.643 524.08 176.427 524.032C177.211 523.968 177.995 523.984 178.779 524.08V530.176C178.059 529.952 177.219 529.88 176.259 529.96C175.315 530.024 174.459 530.24 173.691 530.608C172.923 530.96 172.275 531.432 171.747 532.024C171.219 532.6 170.819 533.288 170.547 534.088C170.275 534.872 170.139 535.76 170.139 536.752V550H163.563ZM193.963 550.72C191.307 550.72 188.963 550.152 186.931 549.016C184.915 547.864 183.331 546.288 182.179 544.288C181.043 542.272 180.475 539.968 180.475 537.376C180.475 534.544 181.035 532.08 182.155 529.984C183.275 527.888 184.819 526.264 186.787 525.112C188.755 523.944 191.019 523.36 193.579 523.36C196.299 523.36 198.611 524 200.515 525.28C202.419 526.56 203.827 528.36 204.739 530.68C205.651 533 205.971 535.728 205.699 538.864H199.243V536.464C199.243 533.824 198.819 531.928 197.971 530.776C197.139 529.608 195.771 529.024 193.867 529.024C191.643 529.024 190.003 529.704 188.947 531.064C187.907 532.408 187.387 534.4 187.387 537.04C187.387 539.456 187.907 541.328 188.947 542.656C190.003 543.968 191.547 544.624 193.579 544.624C194.859 544.624 195.955 544.344 196.867 543.784C197.779 543.224 198.475 542.416 198.955 541.36L205.483 543.232C204.507 545.6 202.963 547.44 200.851 548.752C198.755 550.064 196.459 550.72 193.963 550.72ZM185.371 538.864V534.016H202.555V538.864H185.371ZM220.286 550.72C217.022 550.72 214.382 549.984 212.366 548.512C210.366 547.024 209.15 544.928 208.718 542.224L215.39 541.216C215.662 542.432 216.262 543.384 217.19 544.072C218.134 544.76 219.326 545.104 220.766 545.104C221.95 545.104 222.862 544.88 223.502 544.432C224.142 543.968 224.462 543.328 224.462 542.512C224.462 542 224.334 541.592 224.078 541.288C223.822 540.968 223.246 540.656 222.35 540.352C221.47 540.048 220.094 539.648 218.222 539.152C216.11 538.608 214.422 538 213.158 537.328C211.894 536.656 210.982 535.856 210.422 534.928C209.862 533.984 209.582 532.848 209.582 531.52C209.582 529.856 210.006 528.416 210.854 527.2C211.702 525.968 212.894 525.024 214.43 524.368C215.982 523.696 217.806 523.36 219.902 523.36C221.934 523.36 223.734 523.672 225.302 524.296C226.87 524.92 228.134 525.808 229.094 526.96C230.07 528.112 230.67 529.472 230.894 531.04L224.222 532.24C224.11 531.28 223.694 530.52 222.974 529.96C222.254 529.4 221.278 529.072 220.046 528.976C218.846 528.896 217.878 529.056 217.142 529.456C216.422 529.856 216.062 530.432 216.062 531.184C216.062 531.632 216.214 532.008 216.518 532.312C216.838 532.616 217.486 532.928 218.462 533.248C219.454 533.568 220.958 533.984 222.974 534.496C224.942 535.008 226.518 535.608 227.702 536.296C228.902 536.968 229.774 537.784 230.318 538.744C230.862 539.688 231.134 540.832 231.134 542.176C231.134 544.832 230.174 546.92 228.254 548.44C226.334 549.96 223.678 550.72 220.286 550.72ZM245.096 550.768C243.064 550.768 241.408 550.424 240.128 549.736C238.848 549.048 237.848 548.176 237.128 547.12C236.424 546.064 235.92 544.968 235.616 543.832C235.312 542.68 235.128 541.632 235.064 540.688C235 539.744 234.968 539.056 234.968 538.624V524.08H241.592V536.32C241.592 536.912 241.624 537.672 241.688 538.6C241.752 539.512 241.952 540.432 242.288 541.36C242.624 542.288 243.168 543.064 243.92 543.688C244.688 544.312 245.768 544.624 247.16 544.624C247.72 544.624 248.32 544.536 248.96 544.36C249.6 544.184 250.2 543.848 250.76 543.352C251.32 542.84 251.776 542.096 252.128 541.12C252.496 540.128 252.68 538.832 252.68 537.232L256.424 539.008C256.424 541.056 256.008 542.976 255.176 544.768C254.344 546.56 253.088 548.008 251.408 549.112C249.744 550.216 247.64 550.768 245.096 550.768ZM253.496 550V541.408H252.68V524.08H259.256V550H253.496ZM265.484 550V514.72H272.012V550H265.484ZM293.799 550C292.007 550.336 290.247 550.48 288.519 550.432C286.807 550.4 285.271 550.104 283.911 549.544C282.567 548.968 281.543 548.048 280.839 546.784C280.199 545.6 279.863 544.4 279.831 543.184C279.799 541.952 279.783 540.56 279.783 539.008V516.88H286.311V538.624C286.311 539.632 286.319 540.544 286.335 541.36C286.367 542.16 286.535 542.8 286.839 543.28C287.415 544.192 288.335 544.688 289.599 544.768C290.863 544.848 292.263 544.784 293.799 544.576V550ZM275.367 529.12V524.08H293.799V529.12H275.367ZM308.743 550.72C305.479 550.72 302.839 549.984 300.823 548.512C298.823 547.024 297.607 544.928 297.175 542.224L303.847 541.216C304.119 542.432 304.719 543.384 305.647 544.072C306.591 544.76 307.783 545.104 309.223 545.104C310.407 545.104 311.319 544.88 311.959 544.432C312.599 543.968 312.919 543.328 312.919 542.512C312.919 542 312.791 541.592 312.535 541.288C312.279 540.968 311.703 540.656 310.807 540.352C309.927 540.048 308.551 539.648 306.679 539.152C304.567 538.608 302.879 538 301.615 537.328C300.351 536.656 299.439 535.856 298.879 534.928C298.319 533.984 298.039 532.848 298.039 531.52C298.039 529.856 298.463 528.416 299.311 527.2C300.159 525.968 301.351 525.024 302.887 524.368C304.439 523.696 306.263 523.36 308.359 523.36C310.391 523.36 312.191 523.672 313.759 524.296C315.327 524.92 316.591 525.808 317.551 526.96C318.527 528.112 319.127 529.472 319.351 531.04L312.679 532.24C312.567 531.28 312.151 530.52 311.431 529.96C310.711 529.4 309.735 529.072 308.503 528.976C307.303 528.896 306.335 529.056 305.599 529.456C304.879 529.856 304.519 530.432 304.519 531.184C304.519 531.632 304.671 532.008 304.975 532.312C305.295 532.616 305.943 532.928 306.919 533.248C307.911 533.568 309.415 533.984 311.431 534.496C313.399 535.008 314.975 535.608 316.159 536.296C317.359 536.968 318.231 537.784 318.775 538.744C319.319 539.688 319.591 540.832 319.591 542.176C319.591 544.832 318.631 546.92 316.711 548.44C314.791 549.96 312.135 550.72 308.743 550.72ZM334.715 550V524.176C334.715 523.52 334.731 522.776 334.763 521.944C334.795 521.112 334.923 520.272 335.147 519.424C335.387 518.576 335.819 517.808 336.443 517.12C337.243 516.224 338.107 515.616 339.035 515.296C339.979 514.96 340.891 514.784 341.771 514.768C342.651 514.736 343.403 514.72 344.027 514.72H347.243V520H344.267C343.243 520 342.483 520.264 341.987 520.792C341.491 521.304 341.243 521.92 341.243 522.64V550H334.715ZM330.635 529.12V524.08H347.243V529.12H330.635ZM360.837 550.72C358.229 550.72 355.941 550.136 353.973 548.968C352.005 547.8 350.469 546.192 349.365 544.144C348.277 542.08 347.733 539.712 347.733 537.04C347.733 534.336 348.293 531.96 349.413 529.912C350.533 527.848 352.077 526.24 354.045 525.088C356.013 523.936 358.277 523.36 360.837 523.36C363.445 523.36 365.733 523.944 367.701 525.112C369.685 526.28 371.229 527.896 372.333 529.96C373.437 532.008 373.989 534.368 373.989 537.04C373.989 539.728 373.429 542.104 372.309 544.168C371.205 546.216 369.661 547.824 367.677 548.992C365.709 550.144 363.429 550.72 360.837 550.72ZM360.837 544.624C362.933 544.624 364.493 543.92 365.517 542.512C366.557 541.088 367.077 539.264 367.077 537.04C367.077 534.736 366.549 532.896 365.493 531.52C364.453 530.144 362.901 529.456 360.837 529.456C359.413 529.456 358.245 529.776 357.333 530.416C356.421 531.056 355.741 531.944 355.293 533.08C354.861 534.216 354.645 535.536 354.645 537.04C354.645 539.36 355.165 541.208 356.205 542.584C357.261 543.944 358.805 544.624 360.837 544.624ZM387.955 550.768C385.923 550.768 384.267 550.424 382.987 549.736C381.707 549.048 380.707 548.176 379.987 547.12C379.283 546.064 378.779 544.968 378.475 543.832C378.171 542.68 377.987 541.632 377.923 540.688C377.859 539.744 377.827 539.056 377.827 538.624V524.08H384.451V536.32C384.451 536.912 384.483 537.672 384.547 538.6C384.611 539.512 384.811 540.432 385.147 541.36C385.483 542.288 386.027 543.064 386.779 543.688C387.547 544.312 388.627 544.624 390.019 544.624C390.579 544.624 391.179 544.536 391.819 544.36C392.459 544.184 393.059 543.848 393.619 543.352C394.179 542.84 394.635 542.096 394.987 541.12C395.355 540.128 395.539 538.832 395.539 537.232L399.283 539.008C399.283 541.056 398.867 542.976 398.035 544.768C397.203 546.56 395.947 548.008 394.267 549.112C392.603 550.216 390.499 550.768 387.955 550.768ZM396.355 550V541.408H395.539V524.08H402.115V550H396.355ZM425.526 550V537.76C425.526 537.168 425.494 536.416 425.43 535.504C425.366 534.576 425.166 533.648 424.83 532.72C424.494 531.792 423.942 531.016 423.174 530.392C422.422 529.768 421.35 529.456 419.958 529.456C419.398 529.456 418.798 529.544 418.158 529.72C417.518 529.896 416.918 530.24 416.358 530.752C415.798 531.248 415.334 531.984 414.966 532.96C414.614 533.936 414.438 535.232 414.438 536.848L410.694 535.072C410.694 533.024 411.11 531.104 411.942 529.312C412.774 527.52 414.022 526.072 415.686 524.968C417.366 523.864 419.478 523.312 422.022 523.312C424.054 523.312 425.71 523.656 426.99 524.344C428.27 525.032 429.262 525.904 429.966 526.96C430.686 528.016 431.198 529.12 431.502 530.272C431.806 531.408 431.99 532.448 432.054 533.392C432.118 534.336 432.15 535.024 432.15 535.456V550H425.526ZM407.814 550V524.08H413.622V532.672H414.438V550H407.814ZM447.461 550.72C445.077 550.72 442.989 550.12 441.197 548.92C439.405 547.72 438.005 546.088 436.997 544.024C436.005 541.96 435.509 539.632 435.509 537.04C435.509 534.4 436.013 532.056 437.021 530.008C438.045 527.944 439.477 526.32 441.317 525.136C443.157 523.952 445.317 523.36 447.797 523.36C450.261 523.36 452.333 523.96 454.013 525.16C455.693 526.36 456.965 527.992 457.829 530.056C458.693 532.12 459.125 534.448 459.125 537.04C459.125 539.632 458.685 541.96 457.805 544.024C456.941 546.088 455.645 547.72 453.917 548.92C452.189 550.12 450.037 550.72 447.461 550.72ZM448.517 544.912C449.973 544.912 451.133 544.584 451.997 543.928C452.877 543.272 453.509 542.352 453.893 541.168C454.277 539.984 454.469 538.608 454.469 537.04C454.469 535.472 454.277 534.096 453.893 532.912C453.509 531.728 452.893 530.808 452.045 530.152C451.213 529.496 450.117 529.168 448.757 529.168C447.301 529.168 446.101 529.528 445.157 530.248C444.229 530.952 443.541 531.904 443.093 533.104C442.645 534.288 442.421 535.6 442.421 537.04C442.421 538.496 442.637 539.824 443.069 541.024C443.501 542.208 444.165 543.152 445.061 543.856C445.957 544.56 447.109 544.912 448.517 544.912ZM454.469 550V532.24H453.653V515.44H460.229V550H454.469Z" fill="#1C1C20"/>
<defs>
<linearGradient id="paint0_linear_51_2330" x1="381.522" y1="216.997" x2="284.929" y2="313.59" gradientUnits="userSpaceOnUse">
<stop stop-color="#27D564"/>
<stop offset="1" stop-color="#10662F"/>
</linearGradient>
</defs>
</svg>
