<svg width="17" height="17" viewBox="0 0 17 17" fill="none" xmlns="http://www.w3.org/2000/svg">
<path d="M11.6662 2.87337V1.83337C11.6662 1.56004 11.4395 1.33337 11.1662 1.33337C10.8928 1.33337 10.6662 1.56004 10.6662 1.83337V2.83337H6.33284V1.83337C6.33284 1.56004 6.10617 1.33337 5.83284 1.33337C5.5595 1.33337 5.33284 1.56004 5.33284 1.83337V2.87337C3.53284 3.04004 2.6595 4.11337 2.52617 5.70671C2.51284 5.90004 2.67284 6.06004 2.8595 6.06004H14.1395C14.3328 6.06004 14.4928 5.89337 14.4728 5.70671C14.3395 4.11337 13.4662 3.04004 11.6662 2.87337Z" fill="#909094"/>
<path d="M13.8333 7.06006H3.16667C2.8 7.06006 2.5 7.36006 2.5 7.72673V11.8334C2.5 13.8334 3.5 15.1667 5.83333 15.1667H11.1667C13.5 15.1667 14.5 13.8334 14.5 11.8334V7.72673C14.5 7.36006 14.2 7.06006 13.8333 7.06006ZM6.64 12.6401C6.57333 12.7001 6.5 12.7467 6.42 12.7801C6.34 12.8134 6.25333 12.8334 6.16667 12.8334C6.08 12.8334 5.99333 12.8134 5.91333 12.7801C5.83333 12.7467 5.76 12.7001 5.69333 12.6401C5.57333 12.5134 5.5 12.3401 5.5 12.1667C5.5 11.9934 5.57333 11.8201 5.69333 11.6934C5.76 11.6334 5.83333 11.5867 5.91333 11.5534C6.07333 11.4867 6.26 11.4867 6.42 11.5534C6.5 11.5867 6.57333 11.6334 6.64 11.6934C6.76 11.8201 6.83333 11.9934 6.83333 12.1667C6.83333 12.3401 6.76 12.5134 6.64 12.6401ZM6.78 10.0867C6.74667 10.1667 6.7 10.2401 6.64 10.3067C6.57333 10.3667 6.5 10.4134 6.42 10.4467C6.34 10.4801 6.25333 10.5001 6.16667 10.5001C6.08 10.5001 5.99333 10.4801 5.91333 10.4467C5.83333 10.4134 5.76 10.3667 5.69333 10.3067C5.63333 10.2401 5.58667 10.1667 5.55333 10.0867C5.52 10.0067 5.5 9.92006 5.5 9.83339C5.5 9.74673 5.52 9.66006 5.55333 9.58006C5.58667 9.50006 5.63333 9.42673 5.69333 9.36006C5.76 9.30006 5.83333 9.25339 5.91333 9.22006C6.07333 9.15339 6.26 9.15339 6.42 9.22006C6.5 9.25339 6.57333 9.30006 6.64 9.36006C6.7 9.42673 6.74667 9.50006 6.78 9.58006C6.81333 9.66006 6.83333 9.74673 6.83333 9.83339C6.83333 9.92006 6.81333 10.0067 6.78 10.0867ZM8.97333 10.3067C8.90667 10.3667 8.83333 10.4134 8.75333 10.4467C8.67333 10.4801 8.58667 10.5001 8.5 10.5001C8.41333 10.5001 8.32667 10.4801 8.24667 10.4467C8.16667 10.4134 8.09333 10.3667 8.02667 10.3067C7.90667 10.1801 7.83333 10.0067 7.83333 9.83339C7.83333 9.66006 7.90667 9.48673 8.02667 9.36006C8.09333 9.30006 8.16667 9.25339 8.24667 9.22006C8.40667 9.14673 8.59333 9.14673 8.75333 9.22006C8.83333 9.25339 8.90667 9.30006 8.97333 9.36006C9.09333 9.48673 9.16667 9.66006 9.16667 9.83339C9.16667 10.0067 9.09333 10.1801 8.97333 10.3067Z" fill="#909094"/>
</svg>
