<svg width="17" height="17" viewBox="0 0 17 17" fill="none" xmlns="http://www.w3.org/2000/svg">
<path d="M8.50065 1.83337C6.75398 1.83337 5.33398 3.25337 5.33398 5.00004C5.33398 6.71337 6.67398 8.10004 8.42065 8.16004C8.47398 8.15337 8.52732 8.15337 8.56732 8.16004C8.58065 8.16004 8.58732 8.16004 8.60065 8.16004C8.60732 8.16004 8.60732 8.16004 8.61398 8.16004C10.3207 8.10004 11.6607 6.71337 11.6673 5.00004C11.6673 3.25337 10.2473 1.83337 8.50065 1.83337Z" fill="#909094"/>
<path d="M11.8866 9.9333C10.0266 8.6933 6.99331 8.6933 5.11997 9.9333C4.27331 10.5 3.80664 11.2666 3.80664 12.0866C3.80664 12.9066 4.27331 13.6666 5.11331 14.2266C6.04664 14.8533 7.27331 15.1666 8.49997 15.1666C9.72664 15.1666 10.9533 14.8533 11.8866 14.2266C12.7266 13.66 13.1933 12.9 13.1933 12.0733C13.1866 11.2533 12.7266 10.4933 11.8866 9.9333Z" fill="#909094"/>
</svg>
