<svg width="17" height="17" viewBox="0 0 17 17" fill="none" xmlns="http://www.w3.org/2000/svg">
<path d="M8.50065 1.83337C4.82732 1.83337 1.83398 4.82671 1.83398 8.50004C1.83398 12.1734 4.82732 15.1667 8.50065 15.1667C12.174 15.1667 15.1673 12.1734 15.1673 8.50004C15.1673 4.82671 12.174 1.83337 8.50065 1.83337ZM11.4007 10.88C11.3073 11.04 11.1407 11.1267 10.9673 11.1267C10.8807 11.1267 10.794 11.1067 10.714 11.0534L8.64732 9.82004C8.13398 9.51337 7.75398 8.84004 7.75398 8.24671V5.51337C7.75398 5.24004 7.98065 5.01337 8.25398 5.01337C8.52732 5.01337 8.75398 5.24004 8.75398 5.51337V8.24671C8.75398 8.48671 8.95398 8.84004 9.16065 8.96004L11.2273 10.1934C11.4673 10.3334 11.5473 10.64 11.4007 10.88Z" fill="#909094"/>
</svg>
