<svg width="14" height="15" viewBox="0 0 14 15" fill="none" xmlns="http://www.w3.org/2000/svg">
<path d="M7 1.66666C3.78583 1.66666 1.16666 4.28582 1.16666 7.49999C1.16666 10.7142 3.78583 13.3333 7 13.3333C10.2142 13.3333 12.8333 10.7142 12.8333 7.49999C12.8333 4.28582 10.2142 1.66666 7 1.66666ZM9.5375 9.58249C9.45583 9.72249 9.31 9.79832 9.15833 9.79832C9.0825 9.79832 9.00666 9.78082 8.93666 9.73416L7.12833 8.65499C6.67916 8.38666 6.34666 7.79749 6.34666 7.27832V4.88666C6.34666 4.64749 6.545 4.44916 6.78416 4.44916C7.02333 4.44916 7.22166 4.64749 7.22166 4.88666V7.27832C7.22166 7.48832 7.39666 7.79749 7.5775 7.90249L9.38583 8.98166C9.59583 9.10416 9.66583 9.37249 9.5375 9.58249Z" fill="#909094"/>
</svg>
