<svg width="440" height="516" viewBox="0 0 440 516" fill="none" xmlns="http://www.w3.org/2000/svg">
<circle cx="38" cy="70" r="10" fill="#EAEEF9"/>
<circle cx="18" cy="244" r="18" fill="#EAEEF9"/>
<circle cx="410" cy="56" r="12" fill="#EAEEF9"/>
<circle cx="220" cy="160" r="160" fill="#EAEEF9"/>
<g filter="url(#filter0_dd_51_2330)">
<rect x="54" y="44" width="332" height="208" rx="12" fill="url(#paint0_linear_51_2330)"/>
<rect x="82.1406" y="92.3721" width="58.0465" height="43.5349" rx="4" fill="#D5DDEA"/>
<circle cx="333.674" cy="106.884" r="24.186" fill="#989FB0"/>
<circle cx="304.651" cy="106.884" r="24.186" fill="#D5DDEA"/>
<path d="M82.1406 220.558C82.1406 217.886 84.3063 215.721 86.9778 215.721H135.35C138.021 215.721 140.187 217.886 140.187 220.558C140.187 223.229 138.021 225.395 135.35 225.395H86.9778C84.3063 225.395 82.1406 223.229 82.1406 220.558Z" fill="#D5DDEA"/>
<path d="M154.699 220.558C154.699 217.886 156.864 215.721 159.536 215.721H207.908C210.58 215.721 212.745 217.886 212.745 220.558C212.745 223.229 210.58 225.395 207.908 225.395H159.536C156.864 225.395 154.699 223.229 154.699 220.558Z" fill="#D5DDEA"/>
<path d="M227.257 220.558C227.257 217.886 229.423 215.721 232.094 215.721H280.466C283.138 215.721 285.303 217.886 285.303 220.558C285.303 223.229 283.138 225.395 280.466 225.395H232.094C229.423 225.395 227.257 223.229 227.257 220.558Z" fill="#D5DDEA"/>
<path d="M299.815 220.558C299.815 217.886 301.981 215.721 304.652 215.721H353.024C355.696 215.721 357.862 217.886 357.862 220.558C357.862 223.229 355.696 225.395 353.024 225.395H304.652C301.981 225.395 299.815 223.229 299.815 220.558Z" fill="#D5DDEA"/>
</g>
<path d="M376.608 204C381.226 196 392.774 196 397.392 204L434.631 268.5C439.25 276.5 433.477 286.5 424.239 286.5H349.761C340.523 286.5 334.75 276.5 339.369 268.5L376.608 204Z" fill="url(#paint1_linear_51_2330)"/>
<path d="M376.608 204C381.226 196 392.774 196 397.392 204L434.631 268.5C439.25 276.5 433.477 286.5 424.239 286.5H349.761C340.523 286.5 334.75 276.5 339.369 268.5L376.608 204Z" fill="url(#paint2_linear_51_2330)"/>
<path d="M382.512 268.5C382.512 267.778 382.654 267.062 382.93 266.395C383.207 265.728 383.612 265.122 384.123 264.611C384.633 264.1 385.24 263.695 385.907 263.419C386.574 263.142 387.289 263 388.012 263C388.734 263 389.449 263.142 390.116 263.419C390.784 263.695 391.39 264.1 391.901 264.611C392.412 265.122 392.817 265.728 393.093 266.395C393.369 267.062 393.512 267.778 393.512 268.5C393.512 269.959 392.932 271.358 391.901 272.389C390.869 273.42 389.47 274 388.012 274C386.553 274 385.154 273.42 384.123 272.389C383.091 271.358 382.512 269.959 382.512 268.5ZM383.051 235.472C382.977 234.779 383.051 234.077 383.266 233.413C383.482 232.75 383.834 232.139 384.301 231.62C384.768 231.102 385.338 230.687 385.976 230.403C386.613 230.119 387.303 229.972 388.001 229.972C388.698 229.972 389.388 230.119 390.026 230.403C390.663 230.687 391.234 231.102 391.7 231.62C392.167 232.139 392.52 232.75 392.735 233.413C392.951 234.077 393.024 234.779 392.951 235.472L391.026 254.761C390.948 255.509 390.595 256.201 390.036 256.704C389.478 257.208 388.753 257.486 388.001 257.486C387.249 257.486 386.524 257.208 385.965 256.704C385.406 256.201 385.054 255.509 384.976 254.761L383.051 235.472Z" fill="white"/>
<circle cx="418" cy="8" r="8" fill="#EAEEF9"/>
<path d="M35.5141 504V469.44H50.1061C50.4421 469.44 50.8901 469.456 51.4501 469.488C52.0261 469.504 52.5381 469.552 52.9861 469.632C55.0501 469.952 56.7381 470.632 58.0501 471.672C59.3781 472.712 60.3541 474.024 60.9781 475.608C61.6021 477.176 61.9141 478.928 61.9141 480.864C61.9141 482.8 61.5941 484.56 60.9541 486.144C60.3301 487.712 59.3541 489.016 58.0261 490.056C56.7141 491.096 55.0341 491.776 52.9861 492.096C52.5381 492.16 52.0261 492.208 51.4501 492.24C50.8741 492.272 50.4261 492.288 50.1061 492.288H42.0421V504H35.5141ZM42.0421 486.192H49.8181C50.1541 486.192 50.5221 486.176 50.9221 486.144C51.3221 486.112 51.6901 486.048 52.0261 485.952C52.9061 485.712 53.5861 485.312 54.0661 484.752C54.5461 484.176 54.8741 483.544 55.0501 482.856C55.2421 482.152 55.3381 481.488 55.3381 480.864C55.3381 480.24 55.2421 479.584 55.0501 478.896C54.8741 478.192 54.5461 477.56 54.0661 477C53.5861 476.424 52.9061 476.016 52.0261 475.776C51.6901 475.68 51.3221 475.616 50.9221 475.584C50.5221 475.552 50.1541 475.536 49.8181 475.536H42.0421V486.192ZM72.4572 504.72C70.6012 504.72 69.0252 504.368 67.7292 503.664C66.4492 502.944 65.4732 501.992 64.8012 500.808C64.1452 499.608 63.8172 498.288 63.8172 496.848C63.8172 495.648 64.0012 494.552 64.3692 493.56C64.7372 492.568 65.3292 491.696 66.1452 490.944C66.9772 490.176 68.0892 489.536 69.4812 489.024C70.4412 488.672 71.5852 488.36 72.9132 488.088C74.2412 487.816 75.7452 487.56 77.4252 487.32C79.1052 487.064 80.9532 486.784 82.9692 486.48L80.6172 487.776C80.6172 486.24 80.2492 485.112 79.5132 484.392C78.7772 483.672 77.5452 483.312 75.8172 483.312C74.8572 483.312 73.8572 483.544 72.8172 484.008C71.7772 484.472 71.0492 485.296 70.6332 486.48L64.7292 484.608C65.3852 482.464 66.6172 480.72 68.4252 479.376C70.2332 478.032 72.6972 477.36 75.8172 477.36C78.1052 477.36 80.1372 477.712 81.9132 478.416C83.6892 479.12 85.0332 480.336 85.9452 482.064C86.4572 483.024 86.7612 483.984 86.8572 484.944C86.9532 485.904 87.0012 486.976 87.0012 488.16V504H81.2892V498.672L82.1052 499.776C80.8412 501.52 79.4732 502.784 78.0012 503.568C76.5452 504.336 74.6972 504.72 72.4572 504.72ZM73.8492 499.584C75.0492 499.584 76.0572 499.376 76.8732 498.96C77.7052 498.528 78.3612 498.04 78.8412 497.496C79.3372 496.952 79.6732 496.496 79.8492 496.128C80.1852 495.424 80.3772 494.608 80.4252 493.68C80.4892 492.736 80.5212 491.952 80.5212 491.328L82.4412 491.808C80.5052 492.128 78.9372 492.4 77.7372 492.624C76.5372 492.832 75.5692 493.024 74.8332 493.2C74.0972 493.376 73.4492 493.568 72.8892 493.776C72.2492 494.032 71.7292 494.312 71.3292 494.616C70.9452 494.904 70.6572 495.224 70.4652 495.576C70.2892 495.928 70.2012 496.32 70.2012 496.752C70.2012 497.344 70.3452 497.856 70.6332 498.288C70.9372 498.704 71.3612 499.024 71.9052 499.248C72.4492 499.472 73.0972 499.584 73.8492 499.584ZM94.1404 515.52L99.1324 501.792L99.2284 505.824L87.9484 478.08H94.7164L102.3 497.712H100.764L108.3 478.08H114.828L100.188 515.52H94.1404ZM148.443 504V488.688C148.443 486.976 148.035 485.648 147.219 484.704C146.419 483.744 145.307 483.264 143.883 483.264C142.971 483.264 142.179 483.48 141.507 483.912C140.835 484.328 140.307 484.92 139.923 485.688C139.555 486.44 139.371 487.312 139.371 488.304L136.635 486.48C136.635 484.704 137.051 483.136 137.883 481.776C138.731 480.416 139.859 479.36 141.267 478.608C142.691 477.84 144.267 477.456 145.995 477.456C148.955 477.456 151.187 478.336 152.691 480.096C154.211 481.84 154.971 484.128 154.971 486.96V504H148.443ZM117.195 504V478.08H122.955V486.672H123.771V504H117.195ZM132.843 504V488.688C132.843 486.976 132.435 485.648 131.619 484.704C130.819 483.744 129.707 483.264 128.283 483.264C126.923 483.264 125.827 483.736 124.995 484.68C124.179 485.608 123.771 486.816 123.771 488.304L121.035 486.384C121.035 484.688 121.459 483.168 122.307 481.824C123.155 480.48 124.291 479.416 125.715 478.632C127.155 477.848 128.763 477.456 130.539 477.456C132.571 477.456 134.235 477.888 135.531 478.752C136.843 479.616 137.811 480.768 138.435 482.208C139.059 483.648 139.371 485.232 139.371 486.96V504H132.843ZM171.831 504.72C169.175 504.72 166.831 504.152 164.799 503.016C162.783 501.864 161.199 500.288 160.047 498.288C158.911 496.272 158.343 493.968 158.343 491.376C158.343 488.544 158.903 486.08 160.023 483.984C161.143 481.888 162.687 480.264 164.655 479.112C166.623 477.944 168.887 477.36 171.447 477.36C174.167 477.36 176.479 478 178.383 479.28C180.287 480.56 181.695 482.36 182.607 484.68C183.519 487 183.839 489.728 183.567 492.864H177.111V490.464C177.111 487.824 176.687 485.928 175.839 484.776C175.007 483.608 173.639 483.024 171.735 483.024C169.511 483.024 167.871 483.704 166.815 485.064C165.775 486.408 165.255 488.4 165.255 491.04C165.255 493.456 165.775 495.328 166.815 496.656C167.871 497.968 169.415 498.624 171.447 498.624C172.727 498.624 173.823 498.344 174.735 497.784C175.647 497.224 176.343 496.416 176.823 495.36L183.351 497.232C182.375 499.6 180.831 501.44 178.719 502.752C176.623 504.064 174.327 504.72 171.831 504.72ZM163.239 492.864V488.016H180.423V492.864H163.239ZM204.987 504V491.76C204.987 491.168 204.955 490.416 204.891 489.504C204.827 488.576 204.627 487.648 204.291 486.72C203.955 485.792 203.403 485.016 202.635 484.392C201.883 483.768 200.811 483.456 199.419 483.456C198.859 483.456 198.259 483.544 197.619 483.72C196.979 483.896 196.379 484.24 195.819 484.752C195.259 485.248 194.795 485.984 194.427 486.96C194.075 487.936 193.899 489.232 193.899 490.848L190.155 489.072C190.155 487.024 190.571 485.104 191.403 483.312C192.235 481.52 193.483 480.072 195.147 478.968C196.827 477.864 198.939 477.312 201.483 477.312C203.515 477.312 205.171 477.656 206.451 478.344C207.731 479.032 208.723 479.904 209.427 480.96C210.147 482.016 210.659 483.12 210.963 484.272C211.267 485.408 211.451 486.448 211.515 487.392C211.579 488.336 211.611 489.024 211.611 489.456V504H204.987ZM187.275 504V478.08H193.083V486.672H193.899V504H187.275ZM232.431 504C230.639 504.336 228.879 504.48 227.151 504.432C225.439 504.4 223.903 504.104 222.543 503.544C221.199 502.968 220.175 502.048 219.471 500.784C218.831 499.6 218.495 498.4 218.463 497.184C218.431 495.952 218.415 494.56 218.415 493.008V470.88H224.943V492.624C224.943 493.632 224.951 494.544 224.967 495.36C224.999 496.16 225.167 496.8 225.471 497.28C226.047 498.192 226.967 498.688 228.231 498.768C229.495 498.848 230.895 498.784 232.431 498.576V504ZM213.999 483.12V478.08H232.431V483.12H213.999ZM245.897 504V469.44H267.017V475.968H252.425V483.456H264.137V489.984H252.425V504H245.897ZM276.652 504.72C274.796 504.72 273.22 504.368 271.924 503.664C270.644 502.944 269.668 501.992 268.996 500.808C268.34 499.608 268.012 498.288 268.012 496.848C268.012 495.648 268.196 494.552 268.564 493.56C268.932 492.568 269.524 491.696 270.34 490.944C271.172 490.176 272.284 489.536 273.676 489.024C274.636 488.672 275.78 488.36 277.108 488.088C278.436 487.816 279.94 487.56 281.62 487.32C283.3 487.064 285.148 486.784 287.164 486.48L284.812 487.776C284.812 486.24 284.444 485.112 283.708 484.392C282.972 483.672 281.74 483.312 280.012 483.312C279.052 483.312 278.052 483.544 277.012 484.008C275.972 484.472 275.244 485.296 274.828 486.48L268.924 484.608C269.58 482.464 270.812 480.72 272.62 479.376C274.428 478.032 276.892 477.36 280.012 477.36C282.3 477.36 284.332 477.712 286.108 478.416C287.884 479.12 289.228 480.336 290.14 482.064C290.652 483.024 290.956 483.984 291.052 484.944C291.148 485.904 291.196 486.976 291.196 488.16V504H285.484V498.672L286.3 499.776C285.036 501.52 283.668 502.784 282.196 503.568C280.74 504.336 278.892 504.72 276.652 504.72ZM278.044 499.584C279.244 499.584 280.252 499.376 281.068 498.96C281.9 498.528 282.556 498.04 283.036 497.496C283.532 496.952 283.868 496.496 284.044 496.128C284.38 495.424 284.572 494.608 284.62 493.68C284.684 492.736 284.716 491.952 284.716 491.328L286.636 491.808C284.7 492.128 283.132 492.4 281.932 492.624C280.732 492.832 279.764 493.024 279.028 493.2C278.292 493.376 277.644 493.568 277.084 493.776C276.444 494.032 275.924 494.312 275.524 494.616C275.14 494.904 274.852 495.224 274.66 495.576C274.484 495.928 274.396 496.32 274.396 496.752C274.396 497.344 274.54 497.856 274.828 498.288C275.132 498.704 275.556 499.024 276.1 499.248C276.644 499.472 277.292 499.584 278.044 499.584ZM296.957 474.48V468.72H303.485V474.48H296.957ZM296.957 504V478.08H303.485V504H296.957ZM310.2 504V468.72H316.728V504H310.2ZM335.011 504.72C332.355 504.72 330.011 504.152 327.979 503.016C325.963 501.864 324.379 500.288 323.227 498.288C322.091 496.272 321.523 493.968 321.523 491.376C321.523 488.544 322.083 486.08 323.203 483.984C324.323 481.888 325.867 480.264 327.835 479.112C329.803 477.944 332.067 477.36 334.627 477.36C337.347 477.36 339.659 478 341.563 479.28C343.467 480.56 344.875 482.36 345.787 484.68C346.699 487 347.019 489.728 346.747 492.864H340.291V490.464C340.291 487.824 339.867 485.928 339.019 484.776C338.187 483.608 336.819 483.024 334.915 483.024C332.691 483.024 331.051 483.704 329.995 485.064C328.955 486.408 328.435 488.4 328.435 491.04C328.435 493.456 328.955 495.328 329.995 496.656C331.051 497.968 332.595 498.624 334.627 498.624C335.907 498.624 337.003 498.344 337.915 497.784C338.827 497.224 339.523 496.416 340.003 495.36L346.531 497.232C345.555 499.6 344.011 501.44 341.899 502.752C339.803 504.064 337.507 504.72 335.011 504.72ZM326.419 492.864V488.016H343.603V492.864H326.419ZM361.718 504.72C359.334 504.72 357.246 504.12 355.454 502.92C353.662 501.72 352.262 500.088 351.254 498.024C350.262 495.96 349.766 493.632 349.766 491.04C349.766 488.4 350.27 486.056 351.278 484.008C352.302 481.944 353.734 480.32 355.574 479.136C357.414 477.952 359.574 477.36 362.054 477.36C364.518 477.36 366.59 477.96 368.27 479.16C369.95 480.36 371.222 481.992 372.086 484.056C372.95 486.12 373.382 488.448 373.382 491.04C373.382 493.632 372.942 495.96 372.062 498.024C371.198 500.088 369.902 501.72 368.174 502.92C366.446 504.12 364.294 504.72 361.718 504.72ZM362.774 498.912C364.23 498.912 365.39 498.584 366.254 497.928C367.134 497.272 367.766 496.352 368.15 495.168C368.534 493.984 368.726 492.608 368.726 491.04C368.726 489.472 368.534 488.096 368.15 486.912C367.766 485.728 367.15 484.808 366.302 484.152C365.47 483.496 364.374 483.168 363.014 483.168C361.558 483.168 360.358 483.528 359.414 484.248C358.486 484.952 357.798 485.904 357.35 487.104C356.902 488.288 356.678 489.6 356.678 491.04C356.678 492.496 356.894 493.824 357.326 495.024C357.758 496.208 358.422 497.152 359.318 497.856C360.214 498.56 361.366 498.912 362.774 498.912ZM368.726 504V486.24H367.91V469.44H374.486V504H368.726Z" fill="#1C1C20"/>
<defs>
<filter id="filter0_dd_51_2330" x="14" y="44" width="412" height="288" filterUnits="userSpaceOnUse" color-interpolation-filters="sRGB">
<feFlood flood-opacity="0" result="BackgroundImageFix"/>
<feColorMatrix in="SourceAlpha" type="matrix" values="0 0 0 0 0 0 0 0 0 0 0 0 0 0 0 0 0 0 127 0" result="hardAlpha"/>
<feMorphology radius="8" operator="erode" in="SourceAlpha" result="effect1_dropShadow_51_2330"/>
<feOffset dy="16"/>
<feGaussianBlur stdDeviation="8"/>
<feColorMatrix type="matrix" values="0 0 0 0 0.0627451 0 0 0 0 0.0941176 0 0 0 0 0.156863 0 0 0 0.03 0"/>
<feBlend mode="normal" in2="BackgroundImageFix" result="effect1_dropShadow_51_2330"/>
<feColorMatrix in="SourceAlpha" type="matrix" values="0 0 0 0 0 0 0 0 0 0 0 0 0 0 0 0 0 0 127 0" result="hardAlpha"/>
<feMorphology radius="8" operator="erode" in="SourceAlpha" result="effect2_dropShadow_51_2330"/>
<feOffset dy="40"/>
<feGaussianBlur stdDeviation="24"/>
<feColorMatrix type="matrix" values="0 0 0 0 0.0627451 0 0 0 0 0.0941176 0 0 0 0 0.156863 0 0 0 0.08 0"/>
<feBlend mode="normal" in2="effect1_dropShadow_51_2330" result="effect2_dropShadow_51_2330"/>
<feBlend mode="normal" in="SourceGraphic" in2="effect2_dropShadow_51_2330" result="shape"/>
</filter>
<linearGradient id="paint0_linear_51_2330" x1="65.5619" y1="249.538" x2="59.516" y2="59.1685" gradientUnits="userSpaceOnUse">
<stop stop-color="#EDF0F6"/>
<stop offset="1" stop-color="#FCFDFF"/>
</linearGradient>
<linearGradient id="paint1_linear_51_2330" x1="387" y1="119" x2="253" y2="253" gradientUnits="userSpaceOnUse">
<stop stop-color="#FF8960"/>
<stop offset="1" stop-color="#FF62A5"/>
</linearGradient>
<linearGradient id="paint2_linear_51_2330" x1="387" y1="119" x2="253" y2="253" gradientUnits="userSpaceOnUse">
<stop stop-color="#27D564"/>
<stop offset="1" stop-color="#10662F"/>
</linearGradient>
</defs>
</svg>
