<svg width="16" height="16" viewBox="0 0 16 16" fill="none" xmlns="http://www.w3.org/2000/svg">
<g clip-path="url(#clip0_401_5174)">
<path d="M10.0333 3.33317C10.6845 3.46021 11.2829 3.77868 11.7521 4.24779C12.2212 4.71691 12.5396 5.31535 12.6667 5.9665M10.0333 0.666504C11.3862 0.816795 12.6477 1.42262 13.6108 2.38451C14.5739 3.3464 15.1813 4.60718 15.3333 5.95984M14.6667 11.2798V13.2798C14.6674 13.4655 14.6294 13.6493 14.555 13.8194C14.4806 13.9895 14.3715 14.1422 14.2347 14.2677C14.0979 14.3933 13.9364 14.4888 13.7605 14.5483C13.5846 14.6078 13.3983 14.6299 13.2133 14.6132C11.1619 14.3903 9.19134 13.6893 7.46001 12.5665C5.84923 11.5429 4.48356 10.1773 3.46001 8.5665C2.33333 6.82731 1.63217 4.84717 1.41334 2.7865C1.39668 2.60215 1.41859 2.41634 1.47767 2.24092C1.53676 2.0655 1.63172 1.9043 1.75652 1.76758C1.88131 1.63087 2.03321 1.52164 2.20253 1.44685C2.37186 1.37206 2.5549 1.33334 2.74001 1.33317H4.74001C5.06354 1.32999 5.3772 1.44456 5.62251 1.65553C5.86783 1.8665 6.02806 2.15947 6.07334 2.47984C6.15775 3.11988 6.31431 3.74832 6.54001 4.35317C6.6297 4.59179 6.64911 4.85111 6.59594 5.10042C6.54277 5.34973 6.41925 5.57858 6.24001 5.75984L5.39334 6.6065C6.34238 8.27553 7.72431 9.65747 9.39334 10.6065L10.24 9.75984C10.4213 9.58059 10.6501 9.45707 10.8994 9.4039C11.1487 9.35073 11.4081 9.37014 11.6467 9.45984C12.2515 9.68554 12.88 9.84209 13.52 9.9265C13.8439 9.97219 14.1396 10.1353 14.351 10.3848C14.5624 10.6344 14.6748 10.9529 14.6667 11.2798Z" stroke="#909094" stroke-width="1.4" stroke-linecap="round" stroke-linejoin="round"/>
</g>
<defs>
<clipPath id="clip0_401_5174">
<rect width="16" height="16" fill="white"/>
</clipPath>
</defs>
</svg>
