<svg width="336" height="24" viewBox="0 0 336 24" fill="none" xmlns="http://www.w3.org/2000/svg">
<rect x="0.5" y="10" width="335" height="2" fill="#EDEDEE"/>
<rect x="0.5" y="10" width="229" height="2" fill="#1DB954"/>
<rect x="0.5" width="24" height="24" rx="12" fill="#1DB954"/>
<path d="M11.6667 14.9333L9 12.2666L9.93333 11.3333L11.6667 13.0666L16.0667 8.66663L17 9.59996L11.6667 14.9333Z" fill="white"/>
<rect x="104.167" width="24" height="24" rx="12" fill="#1DB954"/>
<path d="M115.334 14.9333L112.667 12.2666L113.6 11.3333L115.334 13.0666L119.734 8.66663L120.667 9.59996L115.334 14.9333Z" fill="white"/>
<rect x="207.834" width="24" height="24" rx="12" fill="#1DB954"/>
<rect x="214.834" y="7" width="10" height="10" rx="5" fill="white"/>
<rect x="311.5" width="24" height="24" rx="12" fill="#EDEDEE"/>
<path d="M320.775 14.5795V13.6918L323.918 8.72727H324.618V10.0341H324.174L321.926 13.5923V13.6491H326.233V14.5795H320.775ZM324.224 16V14.3097L324.231 13.9048V8.72727H325.271V16H324.224Z" fill="#909094"/>
</svg>
