<svg width="336" height="25" viewBox="0 0 336 25" fill="none" xmlns="http://www.w3.org/2000/svg">
<rect x="0.5" y="10.5" width="335" height="2" fill="#EDEDEE"/>
<rect x="0.5" y="0.5" width="24" height="24" rx="12" fill="#1DB954"/>
<rect x="7.5" y="7.5" width="10" height="10" rx="5" fill="white"/>
<rect x="104.167" y="0.5" width="24" height="24" rx="12" fill="#EDEDEE"/>
<path d="M113.8 16.5V15.7045L116.261 13.1548C116.524 12.8778 116.741 12.6352 116.911 12.4268C117.084 12.2161 117.213 12.0161 117.298 11.8267C117.383 11.6373 117.426 11.4361 117.426 11.223C117.426 10.9815 117.369 10.7732 117.255 10.598C117.142 10.4205 116.987 10.2843 116.79 10.1896C116.594 10.0926 116.372 10.044 116.126 10.044C115.866 10.044 115.638 10.0973 115.444 10.2038C115.25 10.3104 115.101 10.4607 114.997 10.6548C114.893 10.849 114.841 11.0762 114.841 11.3366H113.793C113.793 10.8939 113.895 10.5069 114.098 10.1754C114.302 9.84399 114.581 9.58712 114.937 9.40483C115.292 9.22017 115.695 9.12784 116.147 9.12784C116.604 9.12784 117.007 9.21899 117.355 9.40128C117.705 9.5812 117.979 9.82741 118.175 10.1399C118.372 10.45 118.47 10.8004 118.47 11.1911C118.47 11.4609 118.419 11.7249 118.317 11.983C118.218 12.241 118.044 12.5286 117.795 12.8459C117.547 13.1607 117.201 13.5431 116.758 13.9929L115.313 15.5057V15.5589H118.587V16.5H113.8Z" fill="#909094"/>
<rect x="207.833" y="0.5" width="24" height="24" rx="12" fill="#EDEDEE"/>
<path d="M219.842 16.5994C219.354 16.5994 218.919 16.5154 218.535 16.3473C218.154 16.1792 217.852 15.946 217.63 15.6477C217.409 15.3471 217.291 14.9991 217.274 14.6037H218.389C218.404 14.8191 218.476 15.0062 218.606 15.1648C218.739 15.321 218.911 15.4418 219.125 15.527C219.338 15.6122 219.574 15.6548 219.835 15.6548C220.121 15.6548 220.375 15.6051 220.595 15.5057C220.817 15.4062 220.991 15.2678 221.117 15.0902C221.242 14.9103 221.305 14.7031 221.305 14.4688C221.305 14.2249 221.242 14.0107 221.117 13.826C220.994 13.639 220.813 13.4922 220.573 13.3857C220.337 13.2791 220.05 13.2259 219.714 13.2259H219.1V12.331H219.714C219.984 12.331 220.221 12.2824 220.424 12.1854C220.63 12.0883 220.791 11.9534 220.907 11.7805C221.023 11.6054 221.081 11.4006 221.081 11.1662C221.081 10.9413 221.03 10.746 220.929 10.5803C220.829 10.4122 220.687 10.2808 220.502 10.1861C220.32 10.0914 220.105 10.044 219.856 10.044C219.619 10.044 219.398 10.0878 219.192 10.1754C218.988 10.2607 218.823 10.3838 218.695 10.5447C218.567 10.7034 218.498 10.8939 218.489 11.1165H217.427C217.439 10.7235 217.555 10.3778 217.775 10.0795C217.998 9.78125 218.291 9.54806 218.656 9.37997C219.02 9.21188 219.425 9.12784 219.87 9.12784C220.337 9.12784 220.739 9.21899 221.078 9.40128C221.419 9.5812 221.681 9.8215 221.866 10.1222C222.053 10.4228 222.145 10.7519 222.143 11.1094C222.145 11.5166 222.032 11.8622 221.802 12.1463C221.575 12.4304 221.272 12.621 220.893 12.718V12.7749C221.376 12.8482 221.75 13.04 222.015 13.3501C222.283 13.6603 222.415 14.045 222.413 14.5043C222.415 14.9044 222.304 15.263 222.079 15.5803C221.857 15.8975 221.552 16.1473 221.166 16.3295C220.781 16.5095 220.339 16.5994 219.842 16.5994Z" fill="#909094"/>
<rect x="311.5" y="0.5" width="24" height="24" rx="12" fill="#EDEDEE"/>
<path d="M320.775 15.0795V14.1918L323.918 9.22727H324.618V10.5341H324.174L321.926 14.0923V14.1491H326.233V15.0795H320.775ZM324.224 16.5V14.8097L324.231 14.4048V9.22727H325.271V16.5H324.224Z" fill="#909094"/>
</svg>
