<svg width="336" height="24" viewBox="0 0 336 24" fill="none" xmlns="http://www.w3.org/2000/svg">
<rect x="0.5" y="10" width="335" height="2" fill="#EDEDEE"/>
<rect x="0.5" y="10" width="101" height="2" fill="#1DB954"/>
<rect x="0.5" width="24" height="24" rx="12" fill="#1DB954"/>
<path d="M11.6667 14.9333L9 12.2666L9.93333 11.3333L11.6667 13.0666L16.0667 8.66663L17 9.59996L11.6667 14.9333Z" fill="white"/>
<rect x="104.167" width="24" height="24" rx="12" fill="#1DB954"/>
<rect x="111.167" y="7" width="10" height="10" rx="5" fill="white"/>
<rect x="207.833" width="24" height="24" rx="12" fill="#EDEDEE"/>
<path d="M219.842 16.0994C219.354 16.0994 218.919 16.0154 218.535 15.8473C218.154 15.6792 217.852 15.446 217.63 15.1477C217.409 14.8471 217.291 14.4991 217.274 14.1037H218.389C218.404 14.3191 218.476 14.5062 218.606 14.6648C218.739 14.821 218.911 14.9418 219.125 15.027C219.338 15.1122 219.574 15.1548 219.835 15.1548C220.121 15.1548 220.375 15.1051 220.595 15.0057C220.817 14.9062 220.991 14.7678 221.117 14.5902C221.242 14.4103 221.305 14.2031 221.305 13.9688C221.305 13.7249 221.242 13.5107 221.117 13.326C220.994 13.139 220.813 12.9922 220.573 12.8857C220.337 12.7791 220.05 12.7259 219.714 12.7259H219.1V11.831H219.714C219.984 11.831 220.221 11.7824 220.424 11.6854C220.63 11.5883 220.791 11.4534 220.907 11.2805C221.023 11.1054 221.081 10.9006 221.081 10.6662C221.081 10.4413 221.03 10.246 220.929 10.0803C220.829 9.91217 220.687 9.78078 220.502 9.68608C220.32 9.59138 220.105 9.54403 219.856 9.54403C219.619 9.54403 219.398 9.58783 219.192 9.67543C218.988 9.76065 218.823 9.88376 218.695 10.0447C218.567 10.2034 218.498 10.3939 218.489 10.6165H217.427C217.439 10.2235 217.555 9.87784 217.775 9.57955C217.998 9.28125 218.291 9.04806 218.656 8.87997C219.02 8.71188 219.425 8.62784 219.87 8.62784C220.337 8.62784 220.739 8.71899 221.078 8.90128C221.419 9.0812 221.681 9.3215 221.866 9.62216C222.053 9.92282 222.145 10.2519 222.143 10.6094C222.145 11.0166 222.032 11.3622 221.802 11.6463C221.575 11.9304 221.272 12.121 220.893 12.218V12.2749C221.376 12.3482 221.75 12.54 222.015 12.8501C222.283 13.1603 222.415 13.545 222.413 14.0043C222.415 14.4044 222.304 14.763 222.079 15.0803C221.857 15.3975 221.552 15.6473 221.166 15.8295C220.781 16.0095 220.339 16.0994 219.842 16.0994Z" fill="#909094"/>
<rect x="311.5" width="24" height="24" rx="12" fill="#EDEDEE"/>
<path d="M320.775 14.5795V13.6918L323.918 8.72727H324.618V10.0341H324.174L321.926 13.5923V13.6491H326.233V14.5795H320.775ZM324.224 16V14.3097L324.231 13.9048V8.72727H325.271V16H324.224Z" fill="#909094"/>
</svg>
