<svg width="22" height="22" viewBox="0 0 22 22" fill="none" xmlns="http://www.w3.org/2000/svg">
<path d="M14.8408 1.83337H7.15916C3.82249 1.83337 1.83333 3.82254 1.83333 7.15921V14.8317C1.83333 18.1775 3.82249 20.1667 7.15916 20.1667H14.8317C18.1683 20.1667 20.1575 18.1775 20.1575 14.8409V7.15921C20.1667 3.82254 18.1775 1.83337 14.8408 1.83337ZM8.35083 15.4917C8.35083 15.7484 8.14916 15.95 7.89249 15.95H5.335C5.07833 15.95 4.87666 15.7484 4.87666 15.4917V11.2567C4.87666 10.6792 5.34416 10.2117 5.92166 10.2117H7.89249C8.14916 10.2117 8.35083 10.4134 8.35083 10.67V15.4917ZM12.7325 15.4917C12.7325 15.7484 12.5308 15.95 12.2742 15.95H9.71666C9.46 15.95 9.25833 15.7484 9.25833 15.4917V7.09504C9.25833 6.51754 9.72583 6.05004 10.3033 6.05004H11.6967C12.2742 6.05004 12.7417 6.51754 12.7417 7.09504V15.4917H12.7325ZM17.1233 15.4917C17.1233 15.7484 16.9217 15.95 16.665 15.95H14.1075C13.8508 15.95 13.6492 15.7484 13.6492 15.4917V12.2375C13.6492 11.9809 13.8508 11.7792 14.1075 11.7792H16.0783C16.6558 11.7792 17.1233 12.2467 17.1233 12.8242V15.4917Z" fill="#1C1C20"/>
</svg>
