<svg width="146" height="120" viewBox="0 0 146 120" fill="none" xmlns="http://www.w3.org/2000/svg">
<path fill-rule="evenodd" clip-rule="evenodd" d="M124.886 0.318724C122.871 0.826723 121.226 1.57485 119.306 2.85704C111.293 8.20633 109.586 19.6846 115.679 27.2453L116.855 28.7057L115.824 30.1768C110.086 38.3648 98.5668 54.3555 98.4425 54.3067C95.3179 53.0764 93.8676 52.7579 91.3477 52.7481C88.2339 52.7363 85.8508 53.3034 83.2281 54.6808C80.9634 55.8702 78.2299 58.4834 76.9726 60.661C76.9494 60.7014 72.639 58.5884 67.3945 55.9654L57.8585 51.1963L57.8518 48.2385C57.8439 44.7275 57.4637 43.042 56.0368 40.1906C54.1483 36.4177 50.3792 33.1504 46.4149 31.85C43.8615 31.0125 39.9394 30.8128 37.3515 31.3884C32.644 32.4358 28.497 35.5938 26.2215 39.8644C22.8164 46.2553 23.8549 54.0422 28.8215 59.3604L30.4491 61.1033L24.6913 73.7633L18.9335 86.4233L16.6341 86.436C10.2848 86.4709 4.43424 90.1101 1.67637 95.7402C0.397998 98.3498 0.00241056 100.129 1.8848e-05 103.28C-0.00165535 105.486 0.107646 106.383 0.551786 107.815C2.46013 113.967 6.94888 118.217 13.0595 119.658C14.9788 120.11 18.3999 120.115 20.5089 119.668C23.8305 118.964 27.5845 116.663 29.7237 114.019C32.228 110.924 33.3311 108.041 33.5129 104.117C33.6707 100.708 33.2404 98.6255 31.76 95.6268C30.8253 93.7338 30.2862 93.0031 28.5257 91.2424C27.3635 90.0805 26.4128 89.068 26.4128 88.9925C26.4128 88.8545 36.7271 66.1378 37.3059 65.0008C37.6149 64.3938 37.6228 64.3923 39.4641 64.6258C44.2026 65.2266 49.4471 63.2952 53.1603 59.5824L54.4934 58.2492L64.4589 63.2273L74.4245 68.2057L74.5847 70.1367C74.8985 73.918 76.1333 77.087 78.3457 79.7885C82.1592 84.4451 88.4081 86.6675 94.3457 85.479C97.8529 84.7771 101.657 82.5722 103.734 80.0382C108.366 74.3854 108.973 66.7491 105.275 60.6548C104.84 59.9383 104.661 59.4071 104.785 59.2002C104.892 59.0208 109.157 53.0059 114.262 45.8336L123.543 32.7933L124.905 33.1341C126.792 33.6067 130.671 33.5917 132.718 33.1038C138.714 31.6747 143.625 26.8231 145.206 20.7657C145.73 18.7559 145.721 14.9859 145.187 12.7534C143.891 7.33552 139.437 2.4715 134.211 0.767885C131.766 -0.0290323 127.148 -0.251698 124.886 0.318724ZM131.944 8.2556C134.568 9.19291 137.083 12.0472 137.638 14.7163C138.597 19.3357 136.056 23.8727 131.692 25.3324C128.287 26.4713 124.581 25.4881 122.117 22.7922C120.48 21.0015 119.848 19.3187 119.829 16.6998C119.816 14.8976 119.9 14.485 120.571 13.0641C122.646 8.66913 127.434 6.64455 131.944 8.2556ZM43.2815 39.0742C45.9208 39.7616 48.152 41.64 49.3409 44.1757C49.8901 45.3472 49.9712 45.8272 49.9712 47.9115C49.9712 50.1755 49.9281 50.3829 49.1623 51.795C48.1642 53.6349 46.446 55.2763 44.6419 56.1132C43.47 56.6566 42.9489 56.7484 41.0001 56.7542C38.9069 56.7604 38.5988 56.6984 37.1291 55.9761C33.6678 54.2754 31.5576 50.4401 32.0252 46.699C32.5593 42.4233 36.6393 38.8006 41.0118 38.7193C41.4775 38.7107 42.4987 38.8702 43.2815 39.0742ZM94.6418 61.2494C96.5322 62.1149 98.1947 63.7458 99.0299 65.5542C99.6359 66.8658 99.7187 67.3186 99.7187 69.3173C99.7187 71.28 99.6316 71.775 99.0801 72.9518C97.8582 75.5587 95.1828 77.5252 92.3546 77.8952C88.5209 78.397 84.9752 76.4877 83.1975 72.9647C82.5778 71.7365 82.5034 71.3462 82.501 69.3173C82.4989 67.3588 82.5854 66.8596 83.1286 65.7011C84.269 63.2689 86.3347 61.4831 88.8194 60.7809C90.4888 60.3092 93.0353 60.5139 94.6418 61.2494ZM19.4444 94.641C21.0478 95.1399 22.9317 96.408 23.8379 97.5983C27.1342 101.928 26.2375 107.765 21.8153 110.765C17.2653 113.852 11.2501 112.242 8.63265 107.236C7.92446 105.881 7.87711 105.634 7.87711 103.28C7.87711 101.035 7.94575 100.629 8.52335 99.4528C10.5429 95.3422 15.1606 93.3076 19.4444 94.641Z" fill="#1DB954"/>
</svg>
