<svg width="37" height="37" viewBox="0 0 37 37" fill="none" xmlns="http://www.w3.org/2000/svg">
<rect x="0.5" y="0.5" width="36" height="36" rx="18" fill="#E8F8EE"/>
<path fill-rule="evenodd" clip-rule="evenodd" d="M18.2499 9.60994C12.4317 10.4821 9.15641 17.0977 11.8238 22.5892C13.403 25.84 16.1187 27.5 19.8589 27.5C24.8976 27.5 28.8 23.5878 28.8 18.5362C28.8 12.9113 23.8973 8.76303 18.2499 9.60994ZM17.5104 12.3788C17.7162 12.9206 17.0762 14.5523 16.6582 14.5523C16.473 14.5523 16.3216 14.3023 16.3216 13.9966C16.3216 13.0384 14.7684 14.7937 14.1369 16.4649C13.6017 17.8822 13.6036 17.9602 14.1829 18.2882C14.7595 18.6142 14.7608 18.6511 14.2088 19.0591C12.9035 20.0242 15.3125 23.6824 17.7997 24.5121C18.8416 24.86 19.0462 24.8361 19.4166 24.3242C19.8212 23.7648 19.8553 23.7651 20.1692 24.3321C20.4579 24.8537 20.6421 24.8783 21.6732 24.5343C22.3195 24.3189 23.231 23.8378 23.6986 23.466C25.0906 22.3588 26.4367 19.2002 25.5162 19.2002C25.3356 19.2002 25.1878 18.9761 25.1878 18.7022C25.1878 18.4283 25.3356 18.2042 25.5162 18.2042C26.127 18.2042 25.8495 16.6442 25.0181 15.4059C24.1025 14.0417 24.2263 13.1749 25.2085 14.0732C26.2544 15.03 26.9282 17.3294 26.7611 19.3692C26.4606 23.0307 23.5239 25.6711 19.7696 25.6548C16.0303 25.6385 13.2687 23.0938 12.8182 19.2497C12.588 17.2833 13.6322 14.6137 15.1339 13.3299C15.7706 12.7858 16.0024 12.402 15.747 12.314C15.5214 12.2367 15.3365 11.9691 15.3365 11.7201C15.3365 11.3582 15.5401 11.3386 16.3479 11.6235C16.9038 11.8193 17.4273 12.1593 17.5104 12.3788ZM5.97639 14.8866C5.86376 15.0705 5.98723 15.3046 6.25058 15.4069C7.04822 15.7163 9.20172 15.4102 9.34555 14.9673C9.51237 14.4537 6.28802 14.3764 5.97639 14.8866ZM23.5459 15.1193C23.5459 15.2485 23.0123 15.9068 22.3602 16.5818C21.708 17.257 21.002 18.1597 20.7909 18.588C20.3026 19.5777 19.1493 19.6248 19.0133 18.6604C18.9585 18.2723 18.552 17.6113 18.1103 17.1916C17.6683 16.772 17.3068 16.3052 17.3068 16.1545C17.3068 15.61 18.1103 15.8982 19.0025 16.7624L19.9128 17.6441L21.3938 16.2644C22.7766 14.9756 23.5459 14.5663 23.5459 15.1193ZM4.5 18.5362C4.5 18.7314 5.64932 18.8682 7.29122 18.8682C8.93311 18.8682 10.0824 18.7314 10.0824 18.5362C10.0824 18.341 8.93311 18.2042 7.29122 18.2042C5.64932 18.2042 4.5 18.341 4.5 18.5362ZM6.05651 21.721C5.57084 22.212 6.25518 22.5201 7.83041 22.5201C9.00371 22.5201 9.44144 22.4003 9.34522 22.1051C9.20107 21.6623 6.43415 21.3392 6.05651 21.721Z" fill="#1DB954"/>
</svg>
