<svg width="37" height="37" viewBox="0 0 37 37" fill="none" xmlns="http://www.w3.org/2000/svg">
<rect x="0.5" y="0.5" width="36" height="36" rx="18" fill="#E8F8EE"/>
<path d="M26.8337 17.4584C27.1753 17.4584 27.4587 17.175 27.4587 16.8334V16C27.4587 12.325 26.342 11.2084 22.667 11.2084H17.4587V13.0834C17.4587 13.425 17.1753 13.7084 16.8337 13.7084C16.492 13.7084 16.2087 13.425 16.2087 13.0834V11.2084H14.3337C10.6587 11.2084 9.54199 12.325 9.54199 16V16.4167C9.54199 16.7584 9.82533 17.0417 10.167 17.0417C10.967 17.0417 11.6253 17.7 11.6253 18.5C11.6253 19.3 10.967 19.9584 10.167 19.9584C9.82533 19.9584 9.54199 20.2417 9.54199 20.5834V21C9.54199 24.675 10.6587 25.7917 14.3337 25.7917H16.2087V23.9167C16.2087 23.575 16.492 23.2917 16.8337 23.2917C17.1753 23.2917 17.4587 23.575 17.4587 23.9167V25.7917H22.667C26.342 25.7917 27.4587 24.675 27.4587 21C27.4587 20.6584 27.1753 20.375 26.8337 20.375C26.0337 20.375 25.3753 19.7167 25.3753 18.9167C25.3753 18.1167 26.0337 17.4584 26.8337 17.4584ZM17.4587 20.3084C17.4587 20.65 17.1753 20.9334 16.8337 20.9334C16.492 20.9334 16.2087 20.65 16.2087 20.3084V16.6917C16.2087 16.35 16.492 16.0667 16.8337 16.0667C17.1753 16.0667 17.4587 16.35 17.4587 16.6917V20.3084Z" fill="#1DB954"/>
</svg>
