<svg width="22" height="22" viewBox="0 0 22 22" fill="none" xmlns="http://www.w3.org/2000/svg">
<path d="M16.5183 11.3025L15.4 10.1842C15.1342 9.95504 14.9783 9.61587 14.9692 9.24004C14.9508 8.82754 15.1158 8.41504 15.4183 8.11254L16.5183 7.01254C17.4717 6.05921 17.8292 5.14254 17.5267 4.41837C17.2333 3.70337 16.3258 3.30921 14.9875 3.30921H5.40834V2.52087C5.40834 2.14504 5.09667 1.83337 4.72084 1.83337C4.34501 1.83337 4.03334 2.14504 4.03334 2.52087V19.4792C4.03334 19.855 4.34501 20.1667 4.72084 20.1667C5.09667 20.1667 5.40834 19.855 5.40834 19.4792V15.0059H14.9875C16.3075 15.0059 17.1967 14.6025 17.4992 13.8784C17.8017 13.1542 17.4533 12.2467 16.5183 11.3025Z" fill="#1C1C20"/>
</svg>
