<svg width="36" height="36" viewBox="0 0 36 36" fill="none" xmlns="http://www.w3.org/2000/svg">
<rect width="36" height="36" rx="18" fill="#E8F8EE"/>
<path fill-rule="evenodd" clip-rule="evenodd" d="M17.7499 9.10994C11.9317 9.98208 8.65641 16.5977 11.3238 22.0892C12.903 25.34 15.6187 27 19.3589 27C24.3976 27 28.3 23.0878 28.3 18.0362C28.3 12.4113 23.3973 8.26303 17.7499 9.10994ZM17.0104 11.8788C17.2162 12.4206 16.5762 14.0523 16.1582 14.0523C15.973 14.0523 15.8216 13.8023 15.8216 13.4966C15.8216 12.5384 14.2684 14.2937 13.6369 15.9649C13.1017 17.3822 13.1036 17.4602 13.6829 17.7882C14.2595 18.1142 14.2608 18.1511 13.7088 18.5591C12.4035 19.5242 14.8125 23.1824 17.2997 24.0121C18.3416 24.36 18.5462 24.3361 18.9166 23.8242C19.3212 23.2648 19.3553 23.2651 19.6692 23.8321C19.9579 24.3537 20.1421 24.3783 21.1732 24.0343C21.8195 23.8189 22.731 23.3378 23.1986 22.966C24.5906 21.8588 25.9367 18.7002 25.0162 18.7002C24.8356 18.7002 24.6878 18.4761 24.6878 18.2022C24.6878 17.9283 24.8356 17.7042 25.0162 17.7042C25.627 17.7042 25.3495 16.1442 24.5181 14.9059C23.6025 13.5417 23.7263 12.6749 24.7085 13.5732C25.7544 14.53 26.4282 16.8294 26.2611 18.8692C25.9606 22.5307 23.0239 25.1711 19.2696 25.1548C15.5303 25.1385 12.7687 22.5938 12.3182 18.7497C12.088 16.7833 13.1322 14.1137 14.6339 12.8299C15.2706 12.2858 15.5024 11.902 15.247 11.814C15.0214 11.7367 14.8365 11.4691 14.8365 11.2201C14.8365 10.8582 15.0401 10.8386 15.8479 11.1235C16.4038 11.3193 16.9273 11.6593 17.0104 11.8788ZM5.47639 14.3866C5.36376 14.5705 5.48723 14.8046 5.75058 14.9069C6.54822 15.2163 8.70172 14.9102 8.84555 14.4673C9.01237 13.9537 5.78802 13.8764 5.47639 14.3866ZM23.0459 14.6193C23.0459 14.7485 22.5123 15.4068 21.8602 16.0818C21.208 16.757 20.502 17.6597 20.2909 18.088C19.8026 19.0777 18.6493 19.1248 18.5133 18.1604C18.4585 17.7723 18.052 17.1113 17.6103 16.6916C17.1683 16.272 16.8068 15.8052 16.8068 15.6545C16.8068 15.11 17.6103 15.3982 18.5025 16.2624L19.4128 17.1441L20.8938 15.7644C22.2766 14.4756 23.0459 14.0663 23.0459 14.6193ZM4 18.0362C4 18.2314 5.14932 18.3682 6.79122 18.3682C8.43311 18.3682 9.58243 18.2314 9.58243 18.0362C9.58243 17.841 8.43311 17.7042 6.79122 17.7042C5.14932 17.7042 4 17.841 4 18.0362ZM5.55651 21.221C5.07084 21.712 5.75518 22.0201 7.33041 22.0201C8.50371 22.0201 8.94144 21.9003 8.84522 21.6051C8.70107 21.1623 5.93415 20.8392 5.55651 21.221Z" fill="#1DB954"/>
</svg>
