<svg width="22" height="22" viewBox="0 0 22 22" fill="none" xmlns="http://www.w3.org/2000/svg">
<path d="M20.1667 9.85413C20.5425 9.85413 20.8542 9.54246 20.8542 9.16663V8.24996C20.8542 4.20746 19.6258 2.97913 15.5833 2.97913H9.85416V5.04163C9.85416 5.41746 9.54249 5.72913 9.16666 5.72913C8.79083 5.72913 8.47916 5.41746 8.47916 5.04163V2.97913H6.41666C2.37416 2.97913 1.14583 4.20746 1.14583 8.24996V8.70829C1.14583 9.08413 1.45749 9.39579 1.83333 9.39579C2.71333 9.39579 3.43749 10.12 3.43749 11C3.43749 11.88 2.71333 12.6041 1.83333 12.6041C1.45749 12.6041 1.14583 12.9158 1.14583 13.2916V13.75C1.14583 17.7925 2.37416 19.0208 6.41666 19.0208H8.47916V16.9583C8.47916 16.5825 8.79083 16.2708 9.16666 16.2708C9.54249 16.2708 9.85416 16.5825 9.85416 16.9583V19.0208H15.5833C19.6258 19.0208 20.8542 17.7925 20.8542 13.75C20.8542 13.3741 20.5425 13.0625 20.1667 13.0625C19.2867 13.0625 18.5625 12.3383 18.5625 11.4583C18.5625 10.5783 19.2867 9.85413 20.1667 9.85413ZM9.85416 12.9891C9.85416 13.365 9.54249 13.6766 9.16666 13.6766C8.79083 13.6766 8.47916 13.365 8.47916 12.9891V9.01079C8.47916 8.63496 8.79083 8.32329 9.16666 8.32329C9.54249 8.32329 9.85416 8.63496 9.85416 9.01079V12.9891Z" fill="#1C1C20"/>
</svg>
