<svg width="133" height="133" viewBox="0 0 133 133" fill="none" xmlns="http://www.w3.org/2000/svg">
<path opacity="0.4" d="M57.0219 14.8567C44.0003 13.4254 32.2505 22.8481 30.8192 35.8697C29.4153 48.6427 38.2688 60.0785 51.2412 61.9571C51.6443 61.9511 52.0419 61.9948 52.3346 62.0773C52.434 62.0882 52.4837 62.0937 52.5831 62.1046C52.6328 62.11 52.6328 62.11 52.6825 62.1155C65.4551 63.0667 76.5812 53.827 78.0348 41.0594C79.4661 28.0378 70.0435 16.288 57.0219 14.8567Z" fill="#1DB954"/>
<path d="M75.6324 78.0181C62.782 67.2496 40.1682 64.764 25.1862 72.4733C18.4099 76.0041 14.3026 81.3372 13.6307 87.4504C12.9587 93.5636 15.815 99.6119 21.6184 104.475C28.063 109.912 36.9512 113.253 46.0961 114.258C55.241 115.263 64.6427 113.932 72.1143 110.025C78.8409 106.489 82.9427 101.206 83.6201 95.0427C84.2424 88.9241 81.4358 82.8813 75.6324 78.0181Z" fill="#1DB954"/>
<path opacity="0.4" d="M108.725 47.4006C108.461 57.1299 100.673 64.8251 91.0548 64.9248C91.0051 64.9194 91.0051 64.9194 90.9554 64.9139L90.8063 64.8975C90.5081 64.8648 90.2099 64.832 89.9504 64.9041C85.1022 64.6227 80.8481 62.5958 77.8296 59.3968C83.4513 55.387 87.1375 48.8506 87.3606 41.33C87.4552 37.266 86.4678 33.4352 84.7245 30.0746C86.7169 29.3379 88.9693 28.9818 91.2277 29.0289C101.062 29.2547 108.962 37.467 108.725 47.4006Z" fill="#1DB954"/>
<path d="M113.613 94.4662C112.685 99.2435 109.145 103.08 103.665 105.344C98.3943 107.532 91.99 108.136 85.7938 107.304C89.7273 104.466 92.2573 100.67 93.1247 96.4395C94.2991 90.3313 92.0168 84.0946 86.6711 78.7284C83.6307 75.7282 79.9835 73.2147 75.9283 71.2096C87.2617 69.2361 100.844 72.8919 108.589 80.6847C112.757 84.8652 114.585 89.7441 113.613 94.4662Z" fill="#1DB954"/>
</svg>
